<svg width="92" height="13" viewBox="0 0 92 13" fill="none" xmlns="http://www.w3.org/2000/svg">
<g clip-path="url(#clip0_601_10482)">
<path d="M43.718 3.51256C43.718 5.27034 43.5316 10.7147 43.5316 10.7147C43.5316 11.7685 43.9023 12.2378 44.9513 12.2378V12.7071H40.82V12.2358C41.867 12.2358 42.424 11.7685 42.424 10.7127L42.7946 1.81246C42.4847 1.11253 42.1769 0.875909 41.3749 0.818244V0.408628H44.52L47.8493 8.72424L51.2414 0.408628H54.0766V0.818244C53.2746 0.818244 52.8432 1.1702 52.8432 1.98943L53.2139 10.5973C53.2139 11.8838 53.4589 12.2358 54.5686 12.2358V12.7051H49.8196V12.2358C50.7451 12.2358 51.1765 11.9455 51.1158 10.5973C51.1158 10.5973 50.9315 4.56643 50.8687 3.51256L48.5863 9.4858C48.2444 10.3275 47.9564 11.1881 47.7236 12.0628L46.9824 12.1205C46.7981 11.4762 46.304 10.305 46.304 10.305C46.304 10.305 44.3964 5.21068 43.718 3.51256ZM39.8317 12.7647C39.5846 12.7071 39.3396 12.7071 39.0905 12.7071C38.5984 12.7071 37.7336 12.9397 36.6867 12.9397C32.6789 12.9397 29.7181 10.657 29.7181 6.43953C29.7181 2.86831 32.4926 0.11434 36.7474 0.11434C37.7336 0.11434 38.8434 0.291311 39.7689 0.643262C39.9531 0.466292 40.016 0.350963 40.2002 0.173993H40.5708C40.5101 0.818244 40.263 2.92797 40.263 2.92797H39.8924C39.6453 1.69713 38.969 0.877897 36.8102 0.877897C34.22 0.877897 31.8769 2.81065 31.8769 6.38386C31.8769 10.4243 34.2808 12.1801 36.9337 12.1801C38.6612 12.1801 39.7082 11.2436 40.3866 10.0724L40.8179 10.2474L39.8317 12.7647ZM28.1791 2.69134H27.7478C27.687 1.57782 27.3164 1.22786 26.3909 1.22786H24.6027V10.4224C24.6027 11.9455 24.9105 12.2358 25.9596 12.2358V12.7051H21.3362V12.2358C22.3832 12.2358 22.6931 11.9455 22.6931 10.3627V1.22786H20.9028C19.7302 1.22786 19.5459 1.52016 19.2381 2.69134H18.8047L19.1125 0.0566759L19.4203 0.11434C19.5438 0.406639 19.7909 0.406639 20.5301 0.406639H26.5103C27.62 0.406639 27.8671 0.406639 28.1142 0.0546875H28.4848L28.1791 2.69134Z" fill="#4197F7"/>
<path d="M15.1114 12.9984C14.2467 12.9984 13.5703 12.881 13.0762 12.708C12.7061 12.6253 12.3526 12.4863 12.0292 12.2964C11.8657 12.4572 11.7204 12.6338 11.5958 12.8234L11.2252 12.708L11.533 9.95407L11.9643 10.0117C12.2114 11.3002 13.1369 12.2368 15.0465 12.2368C16.5269 12.2368 17.5132 11.0656 17.5132 9.77909C17.5132 8.72523 17.0818 8.19829 15.6014 7.14442C15.1114 6.85014 14.6801 6.6155 14.3095 6.32519C12.9526 5.50397 12.0878 4.56742 12.0878 3.04428C12.0878 1.28651 13.629 0.115329 15.6642 0.115329C16.8368 0.115329 17.576 0.467281 17.8231 0.58261L18.2565 0.115329L18.5643 0.172993L18.2565 2.69233L17.8231 2.63467C17.8231 1.46348 17.0839 0.93655 15.8506 0.93655C14.6801 0.93655 13.8153 1.52314 13.8153 2.63467C13.8153 3.62888 14.6173 4.27313 15.5428 4.85972C16.0349 5.15202 16.4055 5.38665 16.7761 5.62129C18.9349 7.08477 19.427 8.02132 19.427 9.42714C19.427 11.4752 17.7623 12.9984 15.1114 12.9984ZM8.08011 2.69233H7.58804C7.58804 1.63847 7.09388 1.22885 6.10765 1.22885H3.33322V5.85393H5.12142C6.04692 5.85393 6.23119 5.38665 6.35473 4.62509H6.78607V7.904H6.35473C6.23119 7.02711 6.04692 6.67516 5.06069 6.67516H3.33322V10.5983C3.33322 12.0618 3.70384 12.2368 4.69007 12.2368V12.7061H0.00390625V12.2368C1.1744 12.2368 1.35866 11.9465 1.35866 10.5983V1.99042C1.35866 1.17118 0.988043 0.819233 0.00390625 0.819233V0.409616H6.41545C7.52522 0.409616 7.77021 0.351952 7.95657 0H8.38791L8.08011 2.69233ZM74.614 3.39624V10.4233C74.614 11.9465 74.9846 12.2368 75.9709 12.2368V12.7061H68.6945V12.2368C69.2494 12.2368 69.7415 12.0618 69.7415 11.7099C69.7415 11.4752 69.6808 11.0656 69.5572 10.656L69.0002 8.95787H64.9318C64.8711 9.19052 64.1298 11.1233 64.1298 11.6502C64.1298 12.1175 64.6847 12.2348 65.0553 12.2348V12.7041H61.6632V12.2368C62.2788 12.2368 62.773 12.1791 63.2043 10.9503L66.3494 1.40582C66.1672 0.994214 65.9201 0.876897 65.4888 0.819233V0.409616H68.2632L71.5925 10.4233C71.9003 11.4752 72.2081 12.0041 72.7023 12.2368C73.4414 12.0041 73.6257 11.7695 73.6257 10.4233V1.99042C73.0708 1.28651 73.0101 0.819233 71.961 0.819233V0.409616H75.1061L80.2864 8.78289V2.40003C80.2864 1.11352 79.9786 0.819233 78.9296 0.819233V0.409616H85.8353V0.819233C85.4039 0.819233 85.0333 0.994214 85.0333 1.40582C85.0333 1.69613 85.1568 1.99042 85.2783 2.34237L87.2507 6.38286L89.1625 2.4577C89.4703 1.93076 89.5331 1.63847 89.5331 1.34617C89.5331 0.994214 89.286 0.819233 88.7311 0.819233V0.409616H91.9997V0.819233C91.1978 0.819233 90.7057 1.52314 90.3351 2.34237L87.8077 7.26174V10.483C87.8077 11.8868 88.1783 12.2388 89.1625 12.2388V12.708H84.4763V12.2368C85.4646 12.2368 85.8332 11.8848 85.8332 10.481V7.72902L83.1195 2.2847C82.6274 1.23084 82.441 0.996203 82.1332 0.821221C81.5176 1.05586 81.3313 1.46547 81.3313 2.40202V11.4195C81.3313 11.4195 81.392 12.1235 81.4548 12.9427L80.6528 13.0003L74.614 3.39624ZM66.9063 2.80965L65.181 8.13864H68.7574L66.9063 2.80965Z" fill="#4197F7"/>
<path d="M59.264 8.14308H58.3385V10.6624C58.3385 11.9509 58.7091 12.2432 59.7561 12.2432V12.7125H55.0071V12.2412C55.9954 12.2412 56.3639 11.8893 56.3639 10.6028V2.34682C56.3639 1.0603 55.9954 0.823679 55.0071 0.823679V0.414062H58.5835C62.0363 0.414062 64.0716 1.41027 64.0716 4.1026C64.0737 6.91424 61.6071 8.14308 59.264 8.14308ZM58.6463 1.2333H58.3385V7.2642H58.8934C60.9287 7.2642 61.9777 6.3873 61.9777 4.16026C61.9777 1.93322 61.0501 1.2333 58.6463 1.2333ZM37.7428 10.3681C35.3997 10.3681 33.7979 8.78734 33.7979 6.50462C33.7979 4.33723 35.4626 2.6411 37.7428 2.6411C39.9624 2.6411 41.627 4.27957 41.627 6.50462C41.627 8.67002 39.9016 10.3681 37.7428 10.3681ZM37.7428 3.34302C36.1389 3.34302 35.584 4.8065 35.584 6.50462C35.584 8.08542 36.0782 9.66821 37.7428 9.66821C39.3468 9.66821 39.8388 8.08542 39.8388 6.44695C39.8388 4.86417 39.2232 3.34302 37.7428 3.34302ZM10.6121 9.66622V9.25462C11.2277 9.25462 11.3512 9.07963 11.3512 8.90465C11.3467 8.70374 11.3049 8.50516 11.2277 8.31807C11.2277 8.31807 11.1041 7.85079 10.9806 7.49883H8.57679L8.3318 8.2604C8.25476 8.44686 8.21294 8.64475 8.20826 8.845C8.20826 9.07963 8.45534 9.25462 8.82387 9.25462V9.66622H6.41797V9.25462C7.03358 9.25462 7.28066 9.07963 7.52774 8.43538L9.37875 3.16605C9.31594 2.9334 9.13167 2.75643 8.76315 2.75643V2.34682H10.7356C12.3395 6.79692 12.7709 7.9681 12.7709 7.9681C13.0787 8.96431 13.3865 9.25462 13.8807 9.25462V9.66622H10.6121ZM9.74728 3.98528L8.82387 6.85458H10.7356L9.74728 3.98528Z" fill="#4197F7"/>
</g>
<defs>
<clipPath id="clip0_601_10482">
<rect width="92" height="13" fill="white"/>
</clipPath>
</defs>
</svg>
