<svg width="93" height="17" viewBox="0 0 93 17" fill="none" xmlns="http://www.w3.org/2000/svg">
<g clip-path="url(#clip0_566_1492)">
<mask id="mask0_566_1492" style="mask-type:luminance" maskUnits="userSpaceOnUse" x="0" y="0" width="93" height="17">
<path d="M93 0.238281H0V16.6501H93V0.238281Z" fill="white"/>
</mask>
<g mask="url(#mask0_566_1492)">
<path fill-rule="evenodd" clip-rule="evenodd" d="M1.82353 0.234375C0.816423 0.234375 0 1.05079 0 2.0579V14.8226C0 15.8297 0.816422 16.6461 1.82353 16.6461H14.5882C15.5954 16.6461 16.4118 15.8297 16.4118 14.8226V2.0579C16.4118 1.0508 15.5954 0.234375 14.5882 0.234375H1.82353ZM9.53888 6.97832L8.20591 2.8451L6.87293 6.97832L2.53008 6.96883L6.04909 9.51377L4.69806 13.6411L8.20591 11.0808L11.7138 13.6411L10.3628 9.51377L13.8817 6.96883L9.53888 6.97832Z" fill="#3B95FA"/>
<path fill-rule="evenodd" clip-rule="evenodd" d="M40.1205 0.234375C39.1133 0.234375 38.2969 1.05079 38.2969 2.0579V14.8226C38.2969 15.8297 39.1133 16.6461 40.1205 16.6461H52.8852C53.8923 16.6461 54.7087 15.8297 54.7087 14.8226V2.0579C54.7087 1.0508 53.8923 0.234375 52.8852 0.234375H40.1205ZM47.8358 6.97832L46.5028 2.8451L45.1698 6.97832L40.827 6.96883L44.346 9.51377L42.995 13.6411L46.5028 11.0808L50.0108 13.6411L48.6597 9.51377L52.1787 6.96883L47.8358 6.97832Z" fill="#3B95FA"/>
<path fill-rule="evenodd" clip-rule="evenodd" d="M20.9719 0.234375C19.9648 0.234375 19.1484 1.05079 19.1484 2.0579V14.8226C19.1484 15.8297 19.9648 16.6461 20.9719 16.6461H33.7366C34.7438 16.6461 35.5602 15.8297 35.5602 14.8226V2.0579C35.5602 1.0508 34.7438 0.234375 33.7366 0.234375H20.9719ZM28.6873 6.97832L27.3543 2.8451L26.0213 6.97832L21.6784 6.96883L25.1975 9.51377L23.8464 13.6411L27.3543 11.0808L30.8622 13.6411L29.5111 9.51377L33.0301 6.96883L28.6873 6.97832Z" fill="#3B95FA"/>
<path fill-rule="evenodd" clip-rule="evenodd" d="M59.2611 0.234375C58.2539 0.234375 57.4375 1.05079 57.4375 2.0579V14.8226C57.4375 15.8297 58.2539 16.6461 59.2611 16.6461H72.0258C73.0329 16.6461 73.8493 15.8297 73.8493 14.8226V2.0579C73.8493 1.0508 73.0329 0.234375 72.0258 0.234375H59.2611ZM66.9764 6.97832L65.6434 2.8451L64.3104 6.97832L59.9676 6.96883L63.4866 9.51377L62.1356 13.6411L65.6434 11.0808L69.1513 13.6411L67.8003 9.51377L71.3192 6.96883L66.9764 6.97832Z" fill="#3B95FA"/>
<path fill-rule="evenodd" clip-rule="evenodd" d="M78.4173 0.234375C77.4102 0.234375 76.5938 1.05079 76.5938 2.0579V14.8226C76.5938 15.8297 77.4102 16.6461 78.4173 16.6461H91.182C92.1895 16.6461 93.0056 15.8297 93.0056 14.8226V2.0579C93.0056 1.0508 92.1895 0.234375 91.182 0.234375H78.4173ZM86.1327 6.97832L84.7997 2.8451L83.4667 6.97832L79.1239 6.96883L82.6429 9.51377L81.2918 13.6411L84.7997 11.0808L88.3076 13.6411L86.9566 9.51377L90.4755 6.96883L86.1327 6.97832Z" fill="#3B95FA"/>
</g>
</g>
<defs>
<clipPath id="clip0_566_1492">
<rect width="93" height="17" fill="white"/>
</clipPath>
</defs>
</svg>
