<svg width="16" height="18" viewBox="0 0 16 18" fill="none" xmlns="http://www.w3.org/2000/svg">
<path d="M12.6005 17.23C11.6233 18.1772 10.5564 18.0276 9.5294 17.5789C8.44256 17.1203 7.44545 17.1003 6.29878 17.5789C4.86295 18.1971 4.10516 18.0177 3.24765 17.23C-1.61822 12.2145 -0.900307 4.57671 4.62365 4.29752C5.96974 4.36732 6.90702 5.03538 7.69473 5.0952C8.87131 4.8559 9.99804 4.16789 11.2544 4.25763C12.76 4.37729 13.8967 4.97555 14.6445 6.05242C11.5336 7.91701 12.2714 12.0151 15.1232 13.1618C14.5548 14.6574 13.817 16.1431 12.5905 17.2399L12.6005 17.23ZM7.59502 4.23769C7.44545 2.01415 9.25021 0.179479 11.3242 0C11.6133 2.57253 8.99097 4.48697 7.59502 4.23769Z" fill="black"/>
</svg>
