<svg width="104" height="20" viewBox="0 0 104 20" fill="none" xmlns="http://www.w3.org/2000/svg">
<g filter="url(#filter0_i_721_1105)">
<path d="M48.1244 19.1141C46.6589 19.3788 45.2813 19.2686 44.02 18.4663C41.4348 16.822 41.2541 12.935 43.6664 11.0428C44.9769 10.0147 46.5141 9.56452 48.103 9.25832C50.6059 8.77599 53.1411 8.68555 55.6743 8.78557C57.7914 8.86916 59.7506 8.38685 61.573 7.35777C63.5249 6.25554 65.4371 5.08008 67.353 3.91345C68.9378 2.94841 70.4999 1.94436 72.2815 1.375C73.8131 0.885553 75.3333 0.827869 76.8373 1.48664C79.1509 2.5 80.3369 4.58889 80.1217 7.1443C79.8046 10.9088 76.6872 15.1219 71.9589 15.7984C69.6549 16.1281 67.3573 16.0276 65.0576 15.8213C63.6828 15.698 62.3127 15.5223 60.9395 15.3802C58.79 15.1578 56.7531 15.6199 54.7926 16.4759C53.4662 17.055 52.1737 17.7165 50.8354 18.2642C49.9719 18.6176 49.053 18.8319 48.1244 19.1141ZM66.5683 6.11532C65.4097 6.79495 64.2558 7.4828 63.0916 8.15247C60.7448 9.5025 58.2648 10.1993 55.5228 10.0308C53.7248 9.92027 51.9075 10.0522 50.1032 10.155C48.8851 10.2244 47.6929 10.504 46.6028 11.1073C45.8803 11.5072 45.3444 12.0734 45.1381 12.9057C44.8187 14.1945 45.3988 15.6183 46.5651 16.4105C47.8429 17.2784 49.2319 17.312 50.6078 16.792C52.0703 16.2393 53.4934 15.5747 54.9174 14.9223C57.0073 13.9648 59.1751 13.6081 61.4581 13.8698C63.3753 14.0895 65.2974 14.2759 67.2215 14.4182C69.1609 14.5617 71.0598 14.3753 72.7667 13.3055C74.6607 12.1184 76.0589 10.5197 76.5602 8.26365C76.9766 6.3898 76.1591 4.86639 74.4361 4.0888C73.2672 3.56124 72.0945 3.62109 70.9074 3.98337C69.3684 4.453 67.994 5.27014 66.5683 6.11532Z" fill="white"/>
<path d="M0.2043 14.2693C-0.673325 10.6397 1.37463 7.27575 4.4699 6.27194C5.12402 6.05981 5.83327 5.93732 6.51932 5.92719C9.17326 5.88801 11.8281 5.91344 14.4826 5.90738C14.7902 5.90668 15.0495 5.97342 15.1788 6.27657C15.3172 6.60106 15.1452 6.82988 14.941 7.07506C14.4005 7.72407 13.7587 7.96065 12.9022 7.93384C10.8127 7.86842 8.71994 7.90281 6.62858 7.91304C4.34959 7.9242 2.50212 9.44293 2.0421 11.6614C1.47722 14.3856 3.49496 17.1219 6.25093 17.228C8.54021 17.3162 10.8352 17.252 13.1276 17.2535C13.1642 17.2535 13.2007 17.2307 13.2761 17.2056C13.2761 17.0785 13.2761 16.9465 13.2761 16.8144C13.2762 15.3857 13.2752 13.957 13.2769 12.5282C13.2775 11.9276 13.4589 11.7403 14.0348 11.7343C15.19 11.7222 15.2296 11.7622 15.2297 12.9438C15.2298 14.7535 15.2298 16.5633 15.2299 18.373C15.2299 19.0869 15.0773 19.2473 14.3906 19.2474C11.7897 19.2477 9.18881 19.2578 6.58801 19.244C3.5272 19.2278 0.989829 17.2487 0.2043 14.2693Z" fill="white"/>
<path d="M89.5915 14.1215C87.8724 11.7562 86.1728 9.41245 84.4704 7.07072C84.289 6.82125 84.1252 6.57218 84.2831 6.25073C84.4401 5.93108 84.734 5.9431 85.0358 5.90038C85.8084 5.79103 86.281 6.13178 86.7394 6.74563C89.1108 9.92158 91.525 13.0646 93.9249 16.2186C94.0127 16.3341 94.1069 16.4446 94.2248 16.5904C95.0108 15.5395 95.78 14.5153 96.5447 13.4877C98.3132 11.111 100.083 8.73575 101.842 6.3514C102.074 6.03673 102.335 5.8739 102.723 5.90865C102.936 5.9277 103.165 5.86599 103.363 5.9249C103.586 5.99125 103.866 6.10563 103.962 6.28624C104.046 6.44562 103.981 6.77699 103.861 6.943C102.865 8.32589 101.841 9.68896 100.824 11.0563C98.8367 13.7259 96.8489 16.3949 94.8603 19.0632C94.4349 19.634 94.0896 19.6861 93.6306 19.1307C92.2708 17.4851 90.9477 15.8083 89.5915 14.1215Z" fill="white"/>
<path d="M32.1889 7.9134C31.0893 7.87198 30.0545 7.96046 29.1286 8.55532C27.6594 9.49921 26.8757 10.8432 26.8695 12.6228C26.8627 14.5548 26.8682 16.4868 26.8675 18.4187C26.8673 19.0586 26.6841 19.2444 26.0551 19.2484C24.9471 19.2553 24.8848 19.1975 24.8903 18.0832C24.9003 16.0429 24.8426 13.9988 24.9471 11.9633C25.1026 8.93756 27.5865 6.34656 30.5502 5.98381C30.9216 5.93835 31.2978 5.91442 31.6719 5.91355C34.2055 5.90762 36.7391 5.91362 39.2726 5.90699C39.606 5.90612 39.8985 5.95711 40.0339 6.3029C40.163 6.63252 39.958 6.85055 39.7715 7.0987C39.2809 7.75157 38.6719 7.95994 37.8586 7.93306C35.9839 7.8711 34.1058 7.9134 32.1889 7.9134Z" fill="white"/>
</g>
<defs>
<filter id="filter0_i_721_1105" x="0" y="1" width="104" height="22.1412" filterUnits="userSpaceOnUse" color-interpolation-filters="sRGB">
<feFlood flood-opacity="0" result="BackgroundImageFix"/>
<feBlend mode="normal" in="SourceGraphic" in2="BackgroundImageFix" result="shape"/>
<feColorMatrix in="SourceAlpha" type="matrix" values="0 0 0 0 0 0 0 0 0 0 0 0 0 0 0 0 0 0 127 0" result="hardAlpha"/>
<feOffset dy="3.62068"/>
<feGaussianBlur stdDeviation="1.81034"/>
<feComposite in2="hardAlpha" operator="arithmetic" k2="-1" k3="1"/>
<feColorMatrix type="matrix" values="0 0 0 0 0 0 0 0 0 0 0 0 0 0 0 0 0 0 0.25 0"/>
<feBlend mode="normal" in2="shape" result="effect1_innerShadow_721_1105"/>
</filter>
</defs>
</svg>
