<svg width="104" height="20" viewBox="0 0 104 20" fill="none" xmlns="http://www.w3.org/2000/svg">
<g filter="url(#filter0_i_571_1819)">
<path d="M48.1244 19.1141C46.6589 19.3788 45.2813 19.2686 44.02 18.4663C41.4348 16.822 41.2541 12.935 43.6664 11.0428C44.9769 10.0147 46.5141 9.56452 48.103 9.25832C50.6059 8.77599 53.1411 8.68555 55.6743 8.78557C57.7914 8.86916 59.7506 8.38685 61.573 7.35777C63.5249 6.25554 65.4371 5.08008 67.353 3.91345C68.9378 2.94841 70.4999 1.94436 72.2815 1.375C73.8131 0.885553 75.3333 0.827869 76.8373 1.48664C79.1509 2.5 80.3369 4.58889 80.1217 7.1443C79.8046 10.9088 76.6872 15.1219 71.9589 15.7984C69.6549 16.1281 67.3573 16.0276 65.0576 15.8213C63.6828 15.698 62.3127 15.5223 60.9395 15.3802C58.79 15.1578 56.7531 15.6199 54.7926 16.4759C53.4662 17.055 52.1737 17.7165 50.8354 18.2642C49.9719 18.6176 49.053 18.8319 48.1244 19.1141ZM66.5683 6.11532C65.4097 6.79495 64.2558 7.4828 63.0916 8.15247C60.7448 9.5025 58.2648 10.1993 55.5228 10.0308C53.7248 9.92027 51.9075 10.0522 50.1032 10.155C48.8851 10.2244 47.6929 10.504 46.6028 11.1073C45.8803 11.5072 45.3444 12.0734 45.1381 12.9057C44.8187 14.1945 45.3988 15.6183 46.5651 16.4105C47.8429 17.2784 49.2319 17.312 50.6078 16.792C52.0703 16.2393 53.4934 15.5747 54.9174 14.9223C57.0073 13.9648 59.1751 13.6081 61.4581 13.8698C63.3753 14.0895 65.2974 14.2759 67.2215 14.4182C69.1609 14.5617 71.0598 14.3753 72.7667 13.3055C74.6607 12.1184 76.0589 10.5197 76.5602 8.26365C76.9766 6.3898 76.1591 4.86639 74.4361 4.0888C73.2672 3.56124 72.0945 3.62109 70.9074 3.98337C69.3684 4.453 67.994 5.27014 66.5683 6.11532Z" fill="black"/>
<path d="M0.2043 14.2694C-0.673325 10.6398 1.37463 7.27581 4.4699 6.272C5.12402 6.05987 5.83327 5.93738 6.51932 5.92725C9.17326 5.88807 11.8281 5.9135 14.4826 5.90744C14.7902 5.90674 15.0495 5.97348 15.1788 6.27663C15.3172 6.60112 15.1452 6.82994 14.941 7.07512C14.4005 7.72413 13.7587 7.96071 12.9022 7.9339C10.8127 7.86848 8.71994 7.90287 6.62858 7.9131C4.34959 7.92426 2.50212 9.44299 2.0421 11.6615C1.47722 14.3857 3.49496 17.122 6.25093 17.2281C8.54021 17.3163 10.8352 17.2521 13.1276 17.2536C13.1642 17.2536 13.2007 17.2308 13.2761 17.2057C13.2761 17.0786 13.2761 16.9466 13.2761 16.8145C13.2762 15.3858 13.2752 13.9571 13.2769 12.5283C13.2775 11.9277 13.4589 11.7404 14.0348 11.7344C15.19 11.7223 15.2296 11.7623 15.2297 12.9439C15.2298 14.7536 15.2298 16.5634 15.2299 18.3731C15.2299 19.087 15.0773 19.2474 14.3906 19.2475C11.7897 19.2478 9.18881 19.2579 6.58801 19.2441C3.5272 19.2279 0.989829 17.2488 0.2043 14.2694Z" fill="black"/>
<path d="M89.5915 14.1216C87.8724 11.7563 86.1728 9.41251 84.4704 7.07078C84.289 6.82131 84.1252 6.57224 84.2831 6.25079C84.4401 5.93114 84.734 5.94316 85.0358 5.90044C85.8084 5.79109 86.281 6.13184 86.7394 6.74569C89.1108 9.92164 91.525 13.0647 93.9249 16.2187C94.0127 16.3342 94.1069 16.4447 94.2248 16.5905C95.0108 15.5396 95.78 14.5154 96.5447 13.4878C98.3132 11.1111 100.083 8.73581 101.842 6.35146C102.074 6.03679 102.335 5.87396 102.723 5.90871C102.936 5.92776 103.165 5.86605 103.363 5.92496C103.586 5.99131 103.866 6.10569 103.962 6.2863C104.046 6.44568 103.981 6.77705 103.861 6.94306C102.865 8.32595 101.841 9.68902 100.824 11.0564C98.8367 13.726 96.8489 16.395 94.8603 19.0633C94.4349 19.6341 94.0896 19.6862 93.6306 19.1308C92.2708 17.4852 90.9477 15.8084 89.5915 14.1216Z" fill="black"/>
<path d="M32.1889 7.91337C31.0893 7.87195 30.0545 7.96043 29.1286 8.55529C27.6594 9.49918 26.8757 10.8432 26.8695 12.6228C26.8627 14.5548 26.8682 16.4868 26.8675 18.4187C26.8673 19.0586 26.6841 19.2444 26.0551 19.2484C24.9471 19.2553 24.8848 19.1975 24.8903 18.0832C24.9003 16.0429 24.8426 13.9988 24.9471 11.9633C25.1026 8.93753 27.5865 6.34653 30.5502 5.98378C30.9216 5.93832 31.2978 5.91439 31.6719 5.91352C34.2055 5.90759 36.7391 5.91359 39.2726 5.90696C39.606 5.90609 39.8985 5.95708 40.0339 6.30287C40.163 6.63249 39.958 6.85052 39.7715 7.09867C39.2809 7.75154 38.6719 7.95991 37.8586 7.93303C35.9839 7.87107 34.1058 7.91337 32.1889 7.91337Z" fill="black"/>
</g>
<defs>
<filter id="filter0_i_571_1819" x="0" y="1" width="104" height="22.1402" filterUnits="userSpaceOnUse" color-interpolation-filters="sRGB">
<feFlood flood-opacity="0" result="BackgroundImageFix"/>
<feBlend mode="normal" in="SourceGraphic" in2="BackgroundImageFix" result="shape"/>
<feColorMatrix in="SourceAlpha" type="matrix" values="0 0 0 0 0 0 0 0 0 0 0 0 0 0 0 0 0 0 127 0" result="hardAlpha"/>
<feOffset dy="3.62068"/>
<feGaussianBlur stdDeviation="1.81034"/>
<feComposite in2="hardAlpha" operator="arithmetic" k2="-1" k3="1"/>
<feColorMatrix type="matrix" values="0 0 0 0 0 0 0 0 0 0 0 0 0 0 0 0 0 0 0.25 0"/>
<feBlend mode="normal" in2="shape" result="effect1_innerShadow_571_1819"/>
</filter>
</defs>
</svg>
