<svg width="60" height="45" viewBox="0 0 60 45" fill="none" xmlns="http://www.w3.org/2000/svg">
<path d="M0 44.2969V27.6658C0 19.7838 1.86541 13.5571 5.59622 8.98549C9.37959 4.41392 14.8707 1.41876 22.0696 0V8.19729C16.7099 9.87878 13.1104 12.7689 11.2713 16.8675C10.3254 19.0219 9.93133 21.2551 10.089 23.5672H22.4637V44.2969H0ZM59.4303 8.19729C54.1231 9.82623 50.5499 12.7689 48.7108 17.0251C47.6599 19.2846 47.2395 21.4653 47.4497 23.5672H59.8244V44.2969H37.3607V27.6658C37.3607 19.6787 39.2787 13.4257 43.1146 8.90667C47.003 4.38765 52.4416 1.41876 59.4303 0V8.19729Z" fill="black"/>
</svg>
