<svg width="207" height="48" viewBox="0 0 207 48" fill="none" xmlns="http://www.w3.org/2000/svg">
<rect width="47.9495" height="47.9495" fill="#7E8590"/>
<path d="M10.7656 14.9243H13.4567V21.8966H16.3434V14.9243H19.0345V32.0492H16.3434V24.343H13.4567V32.0492H10.7656V14.9243Z" fill="white"/>
<path d="M24.537 32.2938C23.2322 32.2938 22.2455 31.9268 21.5768 31.1929C20.9081 30.4427 20.5738 29.3744 20.5738 27.9881V27.0096H23.1181V28.1838C23.1181 29.2929 23.5829 29.8474 24.5125 29.8474C24.9692 29.8474 25.3117 29.7169 25.54 29.456C25.7846 29.1787 25.907 28.7384 25.907 28.1349C25.907 27.4173 25.7439 26.7894 25.4177 26.2512C25.0915 25.6967 24.488 25.0361 23.6073 24.2696C22.4983 23.291 21.7236 22.4103 21.2832 21.6275C20.8429 20.8283 20.6227 19.9313 20.6227 18.9364C20.6227 17.5828 20.9652 16.539 21.6502 15.805C22.3352 15.0548 23.3301 14.6797 24.6348 14.6797C25.9233 14.6797 26.8937 15.0548 27.546 15.805C28.2147 16.539 28.5491 17.5991 28.5491 18.9854V19.6948H26.0048V18.8141C26.0048 18.227 25.8906 17.8029 25.6623 17.542C25.434 17.2647 25.0996 17.1261 24.6593 17.1261C23.7623 17.1261 23.3138 17.6725 23.3138 18.7652C23.3138 19.3849 23.4769 19.9639 23.803 20.5021C24.1455 21.0403 24.7571 21.6927 25.6378 22.4592C26.7632 23.4378 27.5379 24.3267 27.9619 25.1258C28.386 25.925 28.598 26.8628 28.598 27.9392C28.598 29.3418 28.2473 30.4182 27.546 31.1684C26.861 31.9187 25.858 32.2938 24.537 32.2938Z" fill="white"/>
<path d="M33.6393 32.2938C32.3346 32.2938 31.3478 31.9268 30.6792 31.1929C30.0105 30.4427 29.6761 29.3744 29.6761 27.9881V27.0096H32.2204V28.1838C32.2204 29.2929 32.6852 29.8474 33.6148 29.8474C34.0715 29.8474 34.414 29.7169 34.6423 29.456C34.887 29.1787 35.0093 28.7384 35.0093 28.1349C35.0093 27.4173 34.8462 26.7894 34.52 26.2512C34.1938 25.6967 33.5904 25.0361 32.7097 24.2696C31.6006 23.291 30.8259 22.4103 30.3856 21.6275C29.9452 20.8283 29.7251 19.9313 29.7251 18.9364C29.7251 17.5828 30.0676 16.539 30.7525 15.805C31.4375 15.0548 32.4324 14.6797 33.7372 14.6797C35.0256 14.6797 35.996 15.0548 36.6484 15.805C37.3171 16.539 37.6514 17.5991 37.6514 18.9854V19.6948H35.1071V18.8141C35.1071 18.227 34.993 17.8029 34.7647 17.542C34.5363 17.2647 34.202 17.1261 33.7616 17.1261C32.8646 17.1261 32.4161 17.6725 32.4161 18.7652C32.4161 19.3849 32.5792 19.9639 32.9054 20.5021C33.2479 21.0403 33.8595 21.6927 34.7402 22.4592C35.8655 23.4378 36.6402 24.3267 37.0643 25.1258C37.4883 25.925 37.7003 26.8628 37.7003 27.9392C37.7003 29.3418 37.3497 30.4182 36.6484 31.1684C35.9634 31.9187 34.9604 32.2938 33.6393 32.2938Z" fill="white"/>
<path d="M56.6467 20.9766V8.33486H58.554V13.8286H64.8564V8.33486H66.7699V20.9766H64.8564V15.4643H58.554V20.9766H56.6467ZM80.0074 14.6557C80.0074 16.0055 79.7605 17.1659 79.2667 18.1371C78.7729 19.1042 78.0959 19.849 77.2359 20.3716C76.3799 20.8901 75.4067 21.1494 74.3162 21.1494C73.2215 21.1494 72.2442 20.8901 71.3841 20.3716C70.5282 19.849 69.8533 19.1021 69.3595 18.1309C68.8657 17.1598 68.6188 16.0014 68.6188 14.6557C68.6188 13.3059 68.8657 12.1475 69.3595 11.1805C69.8533 10.2093 70.5282 9.46446 71.3841 8.94596C72.2442 8.42333 73.2215 8.16202 74.3162 8.16202C75.4067 8.16202 76.3799 8.42333 77.2359 8.94596C78.0959 9.46446 78.7729 10.2093 79.2667 11.1805C79.7605 12.1475 80.0074 13.3059 80.0074 14.6557ZM78.1186 14.6557C78.1186 13.6269 77.9519 12.7607 77.6186 12.057C77.2894 11.3492 76.8367 10.8142 76.2606 10.4521C75.6886 10.0859 75.0404 9.90273 74.3162 9.90273C73.5878 9.90273 72.9376 10.0859 72.3656 10.4521C71.7936 10.8142 71.3409 11.3492 71.0076 12.057C70.6784 12.7607 70.5138 13.6269 70.5138 14.6557C70.5138 15.6845 70.6784 16.5528 71.0076 17.2606C71.3409 17.9643 71.7936 18.4992 72.3656 18.8655C72.9376 19.2276 73.5878 19.4087 74.3162 19.4087C75.0404 19.4087 75.6886 19.2276 76.2606 18.8655C76.8367 18.4992 77.2894 17.9643 77.6186 17.2606C77.9519 16.5528 78.1186 15.6845 78.1186 14.6557ZM88.7589 11.6558C88.693 11.0714 88.4214 10.6188 87.9441 10.2978C87.4667 9.97268 86.8659 9.81014 86.1417 9.81014C85.6231 9.81014 85.1746 9.89244 84.796 10.057C84.4174 10.2175 84.1232 10.4398 83.9133 10.7237C83.7075 11.0035 83.6047 11.3224 83.6047 11.6805C83.6047 11.9809 83.6746 12.2401 83.8145 12.4582C83.9586 12.6763 84.1458 12.8595 84.3763 13.0076C84.6108 13.1516 84.8618 13.273 85.1293 13.3718C85.3968 13.4664 85.654 13.5446 85.9009 13.6064L87.1355 13.9273C87.5387 14.0261 87.9523 14.1598 88.3762 14.3286C88.8 14.4973 89.193 14.7195 89.5552 14.9952C89.9173 15.2709 90.2095 15.6125 90.4317 16.0199C90.658 16.4273 90.7712 16.9149 90.7712 17.4828C90.7712 18.1988 90.586 18.8346 90.2156 19.3902C89.8494 19.9457 89.3165 20.384 88.6169 20.705C87.9214 21.0259 87.0799 21.1864 86.0923 21.1864C85.1458 21.1864 84.3269 21.0362 83.6355 20.7358C82.9442 20.4354 82.403 20.0095 82.0121 19.4581C81.6212 18.9025 81.4051 18.2441 81.364 17.4828H83.2775C83.3146 17.9396 83.4627 18.3202 83.722 18.6248C83.9853 18.9252 84.3207 19.1494 84.7281 19.2976C85.1396 19.4416 85.5902 19.5136 86.0799 19.5136C86.619 19.5136 87.0984 19.4293 87.5182 19.2606C87.942 19.0877 88.2754 18.849 88.5181 18.5445C88.7609 18.2359 88.8823 17.8758 88.8823 17.4643C88.8823 17.0898 88.7753 16.7832 88.5614 16.5446C88.3515 16.3059 88.0655 16.1084 87.7033 15.952C87.3453 15.7956 86.94 15.6577 86.4873 15.5384L84.9935 15.131C83.9812 14.8553 83.1788 14.45 82.5862 13.915C81.9977 13.38 81.7035 12.6722 81.7035 11.7916C81.7035 11.0632 81.901 10.4274 82.2961 9.88421C82.6911 9.34101 83.2261 8.91921 83.901 8.6188C84.5758 8.31428 85.3371 8.16202 86.1849 8.16202C87.0408 8.16202 87.7959 8.31223 88.4502 8.61263C89.1087 8.91304 89.6272 9.32661 90.0058 9.85334C90.3844 10.376 90.5819 10.9768 90.5983 11.6558H88.7589ZM92.529 20.9766V8.33486H97.0351C98.0186 8.33486 98.8334 8.51387 99.4795 8.87188C100.126 9.2299 100.609 9.7196 100.93 10.341C101.251 10.9583 101.412 11.6537 101.412 12.4274C101.412 13.2051 101.249 13.9047 100.924 14.5261C100.603 15.1434 100.117 15.6331 99.4671 15.9952C98.821 16.3532 98.0083 16.5322 97.0289 16.5322H93.9302V14.915H96.8561C97.4774 14.915 97.9815 14.808 98.3684 14.594C98.7552 14.3759 99.0391 14.0796 99.2202 13.7051C99.4013 13.3306 99.4918 12.9047 99.4918 12.4274C99.4918 11.95 99.4013 11.5261 99.2202 11.1558C99.0391 10.7854 98.7531 10.4953 98.3622 10.2854C97.9754 10.0756 97.4651 9.97063 96.8314 9.97063H94.4364V20.9766H92.529ZM105.033 8.33486V20.9766H103.126V8.33486H105.033ZM106.666 9.9768V8.33486H116.45V9.9768H112.506V20.9766H110.604V9.9768H106.666ZM117.665 20.9766H115.64L120.189 8.33486H122.393L126.942 20.9766H124.918L121.344 10.6311H121.245L117.665 20.9766ZM118.004 16.0261H124.572V17.631H118.004V16.0261ZM128.246 20.9766V8.33486H130.154V19.3346H135.882V20.9766H128.246ZM141.615 20.9766V8.33486H149.454V9.9768H143.522V13.8286H148.893V15.4643H143.522V20.9766H141.615ZM162.26 14.6557C162.26 16.0055 162.013 17.1659 161.519 18.1371C161.025 19.1042 160.348 19.849 159.488 20.3716C158.632 20.8901 157.659 21.1494 156.569 21.1494C155.474 21.1494 154.497 20.8901 153.637 20.3716C152.781 19.849 152.106 19.1021 151.612 18.1309C151.118 17.1598 150.871 16.0014 150.871 14.6557C150.871 13.3059 151.118 12.1475 151.612 11.1805C152.106 10.2093 152.781 9.46446 153.637 8.94596C154.497 8.42333 155.474 8.16202 156.569 8.16202C157.659 8.16202 158.632 8.42333 159.488 8.94596C160.348 9.46446 161.025 10.2093 161.519 11.1805C162.013 12.1475 162.26 13.3059 162.26 14.6557ZM160.371 14.6557C160.371 13.6269 160.204 12.7607 159.871 12.057C159.542 11.3492 159.089 10.8142 158.513 10.4521C157.941 10.0859 157.293 9.90273 156.569 9.90273C155.84 9.90273 155.19 10.0859 154.618 10.4521C154.046 10.8142 153.593 11.3492 153.26 12.057C152.931 12.7607 152.766 13.6269 152.766 14.6557C152.766 15.6845 152.931 16.5528 153.26 17.2606C153.593 17.9643 154.046 18.4992 154.618 18.8655C155.19 19.2276 155.84 19.4087 156.569 19.4087C157.293 19.4087 157.941 19.2276 158.513 18.8655C159.089 18.4992 159.542 17.9643 159.871 17.2606C160.204 16.5528 160.371 15.6845 160.371 14.6557ZM164.116 20.9766V8.33486H168.622C169.602 8.33486 170.415 8.50358 171.061 8.84102C171.711 9.17846 172.196 9.64553 172.517 10.2422C172.838 10.8348 172.999 11.52 172.999 12.2977C172.999 13.0714 172.836 13.7524 172.511 14.3409C172.19 14.9253 171.705 15.38 171.055 15.7051C170.408 16.0302 169.596 16.1927 168.616 16.1927H165.203V14.5508H168.443C169.061 14.5508 169.563 14.4623 169.95 14.2853C170.341 14.1084 170.627 13.8512 170.808 13.5138C170.989 13.1763 171.079 12.771 171.079 12.2977C171.079 11.8204 170.987 11.4068 170.801 11.057C170.62 10.7072 170.334 10.4398 169.943 10.2546C169.557 10.0653 169.048 9.97063 168.419 9.97063H166.024V20.9766H164.116ZM170.357 15.273L173.48 20.9766H171.308L168.246 15.273H170.357ZM63.5416 28.6558C63.4757 28.0714 63.2041 27.6188 62.7268 27.2978C62.2494 26.9727 61.6486 26.8101 60.9244 26.8101C60.4058 26.8101 59.9573 26.8924 59.5787 27.057C59.2001 27.2175 58.9059 27.4398 58.696 27.7237C58.4903 28.0035 58.3874 28.3224 58.3874 28.6805C58.3874 28.9809 58.4573 29.2401 58.5972 29.4582C58.7413 29.6763 58.9285 29.8595 59.159 30.0076C59.3935 30.1516 59.6445 30.273 59.912 30.3718C60.1795 30.4664 60.4367 30.5446 60.6836 30.6064L61.9182 30.9273C62.3214 31.0261 62.735 31.1598 63.1589 31.3286C63.5827 31.4973 63.9757 31.7195 64.3379 31.9952C64.7 32.2709 64.9922 32.6125 65.2144 33.0199C65.4407 33.4273 65.5539 33.9149 65.5539 34.4828C65.5539 35.1988 65.3687 35.8346 64.9983 36.3902C64.6321 36.9457 64.0992 37.384 63.3996 37.705C62.7042 38.0259 61.8626 38.1864 60.875 38.1864C59.9285 38.1864 59.1096 38.0362 58.4182 37.7358C57.7269 37.4354 57.1858 37.0095 56.7948 36.4581C56.4039 35.9025 56.1878 35.2441 56.1467 34.4828H58.0602C58.0973 34.9396 58.2454 35.3202 58.5047 35.6248C58.768 35.9252 59.1034 36.1494 59.5108 36.2976C59.9223 36.4416 60.3729 36.5136 60.8626 36.5136C61.4017 36.5136 61.8811 36.4293 62.3009 36.2606C62.7247 36.0877 63.0581 35.849 63.3008 35.5445C63.5436 35.2359 63.665 34.8758 63.665 34.4643C63.665 34.0898 63.558 33.7832 63.3441 33.5446C63.1342 33.3059 62.8482 33.1084 62.4861 32.952C62.128 32.7956 61.7227 32.6577 61.27 32.5384L59.7762 32.131C58.7639 31.8553 57.9615 31.45 57.3689 30.915C56.7804 30.38 56.4862 29.6722 56.4862 28.7916C56.4862 28.0632 56.6837 27.4274 57.0788 26.8842C57.4738 26.341 58.0088 25.9192 58.6837 25.6188C59.3585 25.3143 60.1198 25.162 60.9676 25.162C61.8235 25.162 62.5786 25.3122 63.2329 25.6126C63.8914 25.913 64.4099 26.3266 64.7885 26.8533C65.1671 27.376 65.3646 27.9768 65.3811 28.6558H63.5416ZM67.3117 37.9766V25.3349H71.8178C72.8013 25.3349 73.6161 25.5139 74.2622 25.8719C74.9082 26.2299 75.3918 26.7196 75.7127 27.341C76.0337 27.9583 76.1942 28.6537 76.1942 29.4274C76.1942 30.2051 76.0317 30.9047 75.7066 31.5261C75.3856 32.1434 74.9 32.6331 74.2498 32.9952C73.6037 33.3532 72.791 33.5322 71.8116 33.5322H68.7129V31.915H71.6388C72.2601 31.915 72.7642 31.808 73.1511 31.594C73.5379 31.3759 73.8218 31.0796 74.0029 30.7051C74.184 30.3306 74.2745 29.9047 74.2745 29.4274C74.2745 28.95 74.184 28.5261 74.0029 28.1558C73.8218 27.7854 73.5358 27.4953 73.1449 27.2854C72.7581 27.0756 72.2478 26.9706 71.6141 26.9706H69.2191V37.9766H67.3117ZM77.9088 37.9766V25.3349H85.8346V26.9768H79.8162V30.8286H85.421V32.4643H79.8162V36.3346H85.9086V37.9766H77.9088ZM98.3606 29.4459H96.4348C96.3607 29.0344 96.2228 28.6722 96.0212 28.3595C95.8196 28.0467 95.5726 27.7813 95.2805 27.5632C94.9883 27.3451 94.6611 27.1805 94.299 27.0694C93.941 26.9583 93.5603 26.9027 93.1571 26.9027C92.4287 26.9027 91.7764 27.0859 91.2003 27.4521C90.6283 27.8183 90.1756 28.3554 89.8423 29.0632C89.5131 29.771 89.3485 30.6352 89.3485 31.6557C89.3485 32.6845 89.5131 33.5528 89.8423 34.2606C90.1756 34.9684 90.6304 35.5034 91.2065 35.8655C91.7826 36.2276 92.4307 36.4087 93.1509 36.4087C93.5501 36.4087 93.9286 36.3552 94.2867 36.2482C94.6488 36.1371 94.9759 35.9745 95.2681 35.7606C95.5603 35.5466 95.8072 35.2853 96.0088 34.9766C96.2146 34.6639 96.3566 34.3059 96.4348 33.9026L98.3606 33.9087C98.2578 34.5301 98.0582 35.1021 97.7619 35.6248C97.4697 36.1433 97.0932 36.5918 96.6323 36.9704C96.1755 37.3449 95.6529 37.635 95.0644 37.8408C94.476 38.0465 93.834 38.1494 93.1385 38.1494C92.0439 38.1494 91.0686 37.8901 90.2127 37.3716C89.3567 36.849 88.6818 36.1021 88.188 35.1309C87.6983 34.1598 87.4535 33.0014 87.4535 31.6557C87.4535 30.3059 87.7004 29.1475 88.1942 28.1805C88.688 27.2093 89.3629 26.4645 90.2188 25.946C91.0748 25.4233 92.048 25.162 93.1385 25.162C93.8093 25.162 94.4348 25.2587 95.015 25.4521C95.5994 25.6414 96.1241 25.9213 96.5891 26.2916C97.0541 26.6579 97.4389 27.1064 97.7434 27.6373C98.0479 28.164 98.2537 28.7669 98.3606 29.4459ZM102.029 25.3349V37.9766H100.122V25.3349H102.029ZM105.353 37.9766H103.328L107.878 25.3349H110.081L114.631 37.9766H112.606L109.032 27.6311H108.933L105.353 37.9766ZM105.693 33.0261H112.26V34.631H105.693V33.0261ZM115.935 37.9766V25.3349H117.842V36.3346H123.57V37.9766H115.935ZM136.198 28.6558C136.133 28.0714 135.861 27.6188 135.384 27.2978C134.906 26.9727 134.305 26.8101 133.581 26.8101C133.063 26.8101 132.614 26.8924 132.236 27.057C131.857 27.2175 131.563 27.4398 131.353 27.7237C131.147 28.0035 131.044 28.3224 131.044 28.6805C131.044 28.9809 131.114 29.2401 131.254 29.4582C131.398 29.6763 131.585 29.8595 131.816 30.0076C132.05 30.1516 132.301 30.273 132.569 30.3718C132.836 30.4664 133.094 30.5446 133.34 30.6064L134.575 30.9273C134.978 31.0261 135.392 31.1598 135.816 31.3286C136.24 31.4973 136.633 31.7195 136.995 31.9952C137.357 32.2709 137.649 32.6125 137.871 33.0199C138.098 33.4273 138.211 33.9149 138.211 34.4828C138.211 35.1988 138.026 35.8346 137.655 36.3902C137.289 36.9457 136.756 37.384 136.056 37.705C135.361 38.0259 134.519 38.1864 133.532 38.1864C132.585 38.1864 131.766 38.0362 131.075 37.7358C130.384 37.4354 129.843 37.0095 129.452 36.4581C129.061 35.9025 128.845 35.2441 128.804 34.4828H130.717C130.754 34.9396 130.902 35.3202 131.161 35.6248C131.425 35.9252 131.76 36.1494 132.168 36.2976C132.579 36.4416 133.03 36.5136 133.519 36.5136C134.059 36.5136 134.538 36.4293 134.958 36.2606C135.382 36.0877 135.715 35.849 135.958 35.5445C136.2 35.2359 136.322 34.8758 136.322 34.4643C136.322 34.0898 136.215 33.7832 136.001 33.5446C135.791 33.3059 135.505 33.1084 135.143 32.952C134.785 32.7956 134.38 32.6577 133.927 32.5384L132.433 32.131C131.421 31.8553 130.618 31.45 130.026 30.915C129.437 30.38 129.143 29.6722 129.143 28.7916C129.143 28.0632 129.341 27.4274 129.736 26.8842C130.131 26.341 130.666 25.9192 131.34 25.6188C132.015 25.3143 132.777 25.162 133.624 25.162C134.48 25.162 135.235 25.3122 135.89 25.6126C136.548 25.913 137.067 26.3266 137.445 26.8533C137.824 27.376 138.021 27.9768 138.038 28.6558H136.198ZM148.098 25.3349H150.012V33.6495C150.012 34.5342 149.804 35.3182 149.388 36.0013C148.972 36.6803 148.388 37.2153 147.635 37.6062C146.882 37.993 145.999 38.1864 144.987 38.1864C143.979 38.1864 143.098 37.993 142.345 37.6062C141.592 37.2153 141.008 36.6803 140.592 36.0013C140.176 35.3182 139.969 34.5342 139.969 33.6495V25.3349H141.876V33.4952C141.876 34.0672 142.001 34.5754 142.252 35.0198C142.508 35.4643 142.868 35.8141 143.333 36.0692C143.798 36.3202 144.349 36.4457 144.987 36.4457C145.629 36.4457 146.182 36.3202 146.647 36.0692C147.117 35.8141 147.475 35.4643 147.721 35.0198C147.972 34.5754 148.098 34.0672 148.098 33.4952V25.3349ZM152.263 37.9766V25.3349H156.769C157.749 25.3349 158.561 25.5036 159.207 25.841C159.858 26.1785 160.343 26.6455 160.664 27.2422C160.985 27.8348 161.146 28.52 161.146 29.2977C161.146 30.0714 160.983 30.7524 160.658 31.3409C160.337 31.9253 159.851 32.38 159.201 32.7051C158.555 33.0302 157.742 33.1927 156.763 33.1927H153.35V31.5508H156.59C157.207 31.5508 157.71 31.4623 158.096 31.2853C158.487 31.1084 158.773 30.8512 158.954 30.5138C159.135 30.1763 159.226 29.771 159.226 29.2977C159.226 28.8204 159.133 28.4068 158.948 28.057C158.767 27.7072 158.481 27.4398 158.09 27.2546C157.703 27.0653 157.195 26.9706 156.566 26.9706H154.17V37.9766H152.263ZM158.504 32.273L161.627 37.9766H159.454L156.393 32.273H158.504ZM171.5 29.3286C171.381 28.9541 171.221 28.6187 171.019 28.3224C170.821 28.022 170.585 27.7669 170.309 27.557C170.033 27.343 169.719 27.1805 169.365 27.0694C169.015 26.9583 168.63 26.9027 168.21 26.9027C167.499 26.9027 166.857 27.0859 166.285 27.4521C165.713 27.8183 165.26 28.3554 164.927 29.0632C164.597 29.7669 164.433 30.629 164.433 31.6495C164.433 32.6742 164.599 33.5404 164.933 34.2482C165.266 34.9561 165.723 35.4931 166.303 35.8593C166.883 36.2256 167.544 36.4087 168.285 36.4087C168.972 36.4087 169.57 36.2688 170.081 35.989C170.595 35.7091 170.992 35.3141 171.272 34.8038C171.556 34.2894 171.698 33.6845 171.698 32.989L172.192 33.0816H168.575V31.5076H173.544V32.9458C173.544 34.0075 173.317 34.9293 172.865 35.7112C172.416 36.4889 171.795 37.0898 171.001 37.5136C170.21 37.9375 169.305 38.1494 168.285 38.1494C167.141 38.1494 166.136 37.886 165.272 37.3593C164.412 36.8326 163.741 36.0857 163.26 35.1186C162.778 34.1474 162.538 32.9952 162.538 31.6619C162.538 30.6537 162.678 29.7483 162.957 28.9459C163.237 28.1434 163.63 27.4624 164.136 26.9027C164.647 26.339 165.245 25.9089 165.933 25.6126C166.624 25.3122 167.379 25.162 168.198 25.162C168.881 25.162 169.517 25.2628 170.105 25.4645C170.698 25.6661 171.225 25.9521 171.686 26.3225C172.151 26.6929 172.535 27.1332 172.84 27.6435C173.144 28.1496 173.35 28.7113 173.457 29.3286H171.5ZM175.443 37.9766V25.3349H183.369V26.9768H177.351V30.8286H182.956V32.4643H177.351V36.3346H183.443V37.9766H175.443ZM185.395 37.9766V25.3349H189.902C190.881 25.3349 191.694 25.5036 192.34 25.841C192.99 26.1785 193.476 26.6455 193.797 27.2422C194.118 27.8348 194.278 28.52 194.278 29.2977C194.278 30.0714 194.115 30.7524 193.79 31.3409C193.469 31.9253 192.984 32.38 192.334 32.7051C191.688 33.0302 190.875 33.1927 189.895 33.1927H186.482V31.5508H189.723C190.34 31.5508 190.842 31.4623 191.229 31.2853C191.62 31.1084 191.906 30.8512 192.087 30.5138C192.268 30.1763 192.358 29.771 192.358 29.2977C192.358 28.8204 192.266 28.4068 192.081 28.057C191.899 27.7072 191.613 27.4398 191.223 27.2546C190.836 27.0653 190.327 26.9706 189.698 26.9706H187.303V37.9766H185.395ZM191.636 32.273L194.759 37.9766H192.587L189.525 32.273H191.636ZM194.644 25.3349H196.811L200.113 31.0816H200.249L203.551 25.3349H205.718L201.131 33.0137V37.9766H199.23V33.0137L194.644 25.3349Z" fill="#7E8590"/>
</svg>
