<svg width="42" height="53" viewBox="0 0 42 53" fill="none" xmlns="http://www.w3.org/2000/svg">
<path d="M41.8565 48.7964L39.3788 46.1116C39.1717 45.8873 38.8241 45.8848 38.6096 46.1018C36.8765 47.8374 34.8574 48.3526 33.5162 48.3526H16.005C14.8265 48.3526 13.759 48.2614 13.759 47.0213V42.5961C13.759 42.5961 13.7664 42.5813 13.7763 42.5837C16.4265 43.3012 18.6305 43.7548 21.1403 44.021C30.9942 45.0688 40.0864 42.0241 40.0864 33.4472C40.0864 28.8888 34.8229 24.0937 27.0866 23.9532C27.0028 23.9532 26.9338 23.8842 26.9338 23.8003V20.5313C26.9338 20.445 27.0028 20.376 27.0891 20.376C29.0392 20.3612 30.7304 20.8986 30.7304 20.8986C31.4158 21.1674 31.3221 20.3489 31.3221 20.0777L31.2777 17.4792C31.2678 17.3042 31.0854 17.1834 30.9474 17.1834L18.6823 17.176C18.5443 17.176 18.3717 17.2721 18.352 17.5014L18.3667 20.0777C18.3667 20.3859 18.3224 21.0959 18.9584 20.8986C18.9584 20.8986 20.2675 20.3341 22.6022 20.376C22.686 20.376 22.7575 20.4475 22.7575 20.5313V23.7979C22.7575 23.8842 22.6885 23.9532 22.6022 23.9532H13.9193C13.833 23.9532 13.764 23.8842 13.764 23.7979V11.5378C13.764 11.4539 13.8305 11.3825 13.9144 11.3825C18.5048 11.3184 26.8919 11.9445 33.5286 14.2694C33.7628 14.3507 34.0192 14.2595 34.1449 14.0475C34.7119 13.1008 35.4441 11.91 36.5116 10.0684C36.7655 9.63207 36.3686 9.25487 35.8287 9.40032C32.9393 10.1769 32.8432 9.89832 30.2965 9.2598C27.3923 8.53006 20.6521 7.10017 13.9193 7.21604C13.833 7.21604 13.7615 7.14701 13.7615 7.06072V5.32266C13.7615 4.16888 14.6959 3.23452 15.8496 3.23452H16.3304C16.6238 3.23452 16.8629 2.99538 16.8629 2.70201V0.532512C16.8629 0.239137 16.6238 0 16.3304 0H6.67859C6.38522 0 6.14608 0.239137 6.14608 0.532512V2.70201C6.14608 2.99538 6.38522 3.23452 6.67859 3.23452H7.14947C8.30818 3.23452 9.24747 4.17381 9.24747 5.33252V7.2185C9.24747 7.29493 9.19077 7.35903 9.11681 7.37135C3.96426 8.143 0 12.5954 0 17.96C0 23.3245 3.96426 27.5279 9.11435 28.2552C9.19077 28.2651 9.24747 28.3292 9.24747 28.4081V36.768C7.88907 36.2158 6.5504 35.6068 5.27335 34.9437C4.8148 34.6922 4.35871 34.4358 3.91988 34.172C3.8262 34.1153 3.72266 34.0931 3.62158 34.0981C3.4638 34.0857 3.30601 34.1424 3.19507 34.2682C2.73159 34.7883 2.18675 35.3948 1.49892 36.1739C1.09707 36.6127 0.648383 37.1033 0.140524 37.6703C0.0345146 37.7887 -0.00739548 37.9144 0.00246586 38.0278C-0.0221875 38.3113 0.263791 38.5554 0.680433 38.5233C1.38798 38.4691 1.95994 38.437 2.45794 38.4321C3.8262 38.4987 4.29461 38.8783 6.05733 39.7363C6.84131 40.1184 7.93345 40.6238 9.24994 41.181V46.9622C9.24994 48.6213 7.19631 48.3082 6.40494 48.4069C6.24469 48.4266 6.14855 48.6016 6.14855 48.7643V52.3341C6.14855 52.6275 6.38768 52.8667 6.68106 52.8667H33.5187C36.9209 52.8667 39.6401 51.7523 41.8392 49.5458C42.0438 49.3412 42.0562 49.0133 41.8589 48.8013L41.8565 48.7964ZM13.759 28.339C13.759 28.2527 13.8281 28.1837 13.9144 28.1837H22.5973C22.6836 28.1837 22.7526 28.2527 22.7526 28.339V31.7461C22.7526 31.9113 22.7205 32.0765 22.6589 32.2293L22.1806 33.4078C22.0894 33.6346 22.2546 33.8811 22.4986 33.8811H27.2469C27.4959 33.8811 27.6635 33.6247 27.56 33.3954L27.0447 32.2491C26.9708 32.0839 26.9313 31.9039 26.9313 31.7215V28.3415C26.9313 28.2552 27.0004 28.1837 27.0866 28.1862C30.2299 28.2232 35.846 29.4262 35.846 33.8491C35.846 39.7092 25.7159 41.7677 13.7788 38.3483C13.7718 38.3462 13.7657 38.342 13.7612 38.3363C13.7568 38.3305 13.7543 38.3235 13.7541 38.3162V28.3415L13.759 28.339ZM9.06504 24.0025C5.99323 23.5292 4.08259 20.8863 4.08259 17.706C4.08259 14.7402 6.20032 12.2453 9.05271 11.5353C9.15133 11.5107 9.24501 11.5871 9.24501 11.6882V23.8472C9.24501 23.9433 9.15872 24.0173 9.06504 24.0025Z" fill="#7E8590"/>
</svg>
