<svg width="140" height="48" viewBox="0 0 140 48" fill="none" xmlns="http://www.w3.org/2000/svg">
<g clip-path="url(#clip0_570_1716)">
<path d="M60.4891 0L62.8675 9.11712C63.396 11.2312 64.7174 17.0451 65.1138 19.027H65.2459C64.9816 17.1772 64.7174 9.11712 64.7174 7.39941V0H69.8705V34.3544H64.4531L62.2068 25.7658C61.6783 23.6517 60.357 18.1021 60.0927 16.1202H59.9606C60.2248 17.97 60.357 25.7658 60.357 27.4835V34.3544H55.3359V0H60.4891Z" fill="#7E8590"/>
<path d="M77.8003 4.8889V14.4025H81.7642V19.2913H77.8003V34.3544H72.3828V0H83.2177V4.8889H77.8003Z" fill="#7E8590"/>
<path d="M95.6399 34.3544H84.8047V0H90.2221V29.3334H95.6399V34.3544Z" fill="#7E8590"/>
<path d="M104.627 21.0091H102.777V34.3544H97.3594V0H104.627C107.402 0 110.177 1.58559 110.177 6.21023V14.7988C110.177 19.4234 107.402 21.0091 104.627 21.0091ZM105.024 6.34236C105.024 5.2853 104.759 4.8889 104.098 4.8889H102.645V16.5165H104.098C104.759 16.5165 105.024 16.1202 105.024 15.0631V6.34236Z" fill="#7E8590"/>
<path d="M115.199 28.4085L114.539 34.3544H109.781L114.406 0H119.427L124.052 34.3544H118.766L118.238 28.5406H115.199V28.4085ZM117.709 23.5196L116.917 14.0061L115.86 23.5196H117.709Z" fill="#7E8590"/>
<path d="M49.8779 0H15.5234V34.3544H49.8779V0Z" fill="#7E8590"/>
<path d="M47.0991 11.1427L46.7027 11.6733L46.1742 11.2753C46.1742 11.2753 45.1172 10.4795 43.928 10.7448C43.5316 10.8774 43.2673 11.01 42.8709 11.2753L46.4385 13.6629L45.9099 14.724L42.2103 12.2038C42.8709 12.867 44.5886 14.4587 45.6457 15.2546L44.985 16.3158C44.4565 15.9179 43.928 15.5199 43.2673 14.9894C42.4745 15.5199 41.6818 15.7852 41.5496 15.7852L41.1532 15.9179L40.8889 15.5199C39.3033 12.867 40.2282 9.02043 40.2282 8.75512L41.2854 9.15309C41.2854 9.15309 41.0211 10.2142 41.0211 11.5406V11.6733C41.8139 10.3468 42.7388 9.68363 43.7958 9.41832C44.8529 9.15309 45.9099 9.55097 46.4385 9.81628C46.967 9.15309 47.2313 8.35723 47.2313 7.69399C47.2313 5.43907 45.3814 3.71471 45.1172 3.58207C43.7958 2.65357 42.4745 2.38828 41.1532 2.65357C39.3033 3.0515 37.982 4.64321 37.4535 5.30642C39.1712 8.22458 39.5676 10.6121 39.5676 10.7448L38.3784 11.01C38.3784 11.01 37.982 8.48981 36.2643 5.70435L36 5.30642L36.2643 4.90849C36.3964 4.77585 38.1141 1.99036 41.0211 1.32715C42.6067 0.929213 44.3244 1.32715 46.0421 2.38828C47.6276 3.98 50.0061 7.69399 47.0991 11.1427Z" fill="white"/>
<path d="M39.5703 23.213L39.9667 21.7539C40.3631 22.1519 42.0808 23.3456 42.4772 23.8762L41.8165 25.2026C41.6844 24.9373 40.3631 23.8762 39.5703 23.213Z" fill="white"/>
<path d="M39.968 30.5095C39.4395 30.9074 38.1182 31.1727 34.8148 27.9893C31.5116 24.9385 28.8689 21.6224 28.6046 19.8981C28.2082 18.1737 29.001 15.3883 29.926 13.5312L31.1152 14.0618C30.3224 15.5208 29.926 17.5105 29.926 18.837C29.926 19.1022 29.926 19.3675 30.0581 19.6328C30.3224 20.8266 32.4365 23.7447 36.004 27.0608C38.3825 29.183 39.3074 29.4484 39.5716 29.4484C43.2713 25.6017 44.1962 22.4183 44.1962 20.1634C44.1962 17.9085 43.2713 16.582 43.1392 16.4493L44.1962 15.6535C43.932 15.9188 48.4245 21.7551 39.968 30.5095Z" fill="white"/>
<path d="M36.5322 33.5587C33.6253 28.7836 26.2259 25.7328 26.0938 25.7328L26.6223 24.5391C27.0187 24.6716 35.2109 28.5183 38.2499 33.5587H36.5322Z" fill="white"/>
<path d="M32.177 16.848C30.9878 15.2562 32.177 14.1951 32.177 14.1951C35.6124 14.0625 38.1229 17.5112 38.1229 17.5112C40.6335 20.4293 38.7836 23.3475 38.7836 23.3475C38.7836 23.3475 36.4052 22.419 34.5553 21.6231C32.7055 20.8273 32.4412 20.2966 32.5734 18.9702C32.7055 17.6439 32.177 16.848 32.177 16.848Z" fill="white"/>
<path d="M16.5832 5.4395L16.0547 4.37835C16.4511 4.24571 26.361 0.133793 32.8355 4.11307C36.0067 6.10271 37.7244 9.5514 38.1208 14.5918L36.7995 14.7245C36.5352 10.2146 34.9496 7.03121 32.1749 5.30685C26.2289 1.46022 16.7154 5.4395 16.5832 5.4395Z" fill="white"/>
<path d="M25.3036 14.1939C24.1144 17.2447 22.9253 19.367 21.6039 21.3566L20.5469 20.6934C21.7361 18.7037 23.0574 16.7142 24.1144 13.6633C24.3787 13.1328 24.643 12.3369 24.2466 11.8064C23.9823 11.2758 23.1895 11.1431 23.1895 11.1431L23.9823 10.082C23.9823 10.082 24.7751 10.2147 25.4357 11.1431C25.8321 11.939 25.8321 12.8675 25.3036 14.1939Z" fill="white"/>
<path d="M22.2598 33.6912C21.0706 33.028 19.485 31.0383 19.2207 30.7731C16.5781 27.3244 18.8244 23.4777 20.1457 21.3555L21.2027 22.0187C19.8814 24.0083 18.0316 27.0591 20.1457 29.8446C20.8063 30.5078 23.4489 33.028 24.2418 33.5586L22.2598 33.6912Z" fill="white"/>
<path d="M16.8404 12.7316L16.1797 11.6705C16.3118 11.5379 16.8404 11.0073 17.2367 10.4767C19.3509 8.35442 21.465 9.81354 22.1256 8.75238C22.7863 7.69123 22.3899 5.56895 21.9935 4.90574L23.1827 4.50781C23.3148 4.7731 24.3719 7.82387 23.0506 9.54823C22.3899 10.3441 21.3329 10.6094 20.0115 10.4767C20.0115 10.4767 19.0866 10.4767 18.1617 11.2726C17.8974 11.5379 17.2367 12.4664 16.8404 12.7316Z" fill="white"/>
<path d="M41.1562 13C41.2884 13.398 41.4205 14.0612 41.6848 14.4591C41.8169 14.3265 42.0812 14.3265 42.3455 14.1938C41.8169 13.7959 41.4205 13.1327 41.1562 13Z" fill="#7E8590"/>
</g>
<path d="M21.4196 46.9158H20.2258L18.167 43.6875H16.5346V46.9158H15.5234V38.7903H18.7883C20.2745 38.7903 21.3465 39.7405 21.3465 41.2389C21.3465 42.7007 20.3354 43.5048 19.2268 43.6022L21.4196 46.9158ZM18.6664 42.7982C19.6288 42.7982 20.2988 42.1525 20.2988 41.2389C20.2988 40.313 19.6288 39.6917 18.6664 39.6917H16.5346V42.7982H18.6664Z" fill="#7E8590"/>
<path d="M28.2705 46.9158H22.9469V38.7903H28.2705V39.6917H23.9581V42.3109H28.1853V43.2124H23.9581V46.0143H28.2705V46.9158Z" fill="#7E8590"/>
<path d="M37.192 46.9158H36.0956L34.3048 40.3618L32.514 46.9158H31.4176L29.103 38.7903H30.2238L32.0267 45.5635L33.8906 38.7903H34.7312L36.5951 45.5635L38.3858 38.7903H39.5188L37.192 46.9158Z" fill="#7E8590"/>
<path d="M47.0222 46.9158H45.8649L45.1462 45.1006H41.1017L40.3829 46.9158H39.2256L42.5026 38.7903H43.7574L47.0222 46.9158ZM44.8538 44.2113L43.1239 39.8257L41.4062 44.2113H44.8538Z" fill="#7E8590"/>
<path d="M53.9807 46.9158H52.7869L50.7281 43.6875H49.0957V46.9158H48.0845V38.7903H51.3494C52.8356 38.7903 53.9076 39.7405 53.9076 41.2389C53.9076 42.7007 52.8965 43.5048 51.7879 43.6022L53.9807 46.9158ZM51.2275 42.7982C52.1899 42.7982 52.86 42.1525 52.86 41.2389C52.86 40.313 52.1899 39.6917 51.2275 39.6917H49.0957V42.7982H51.2275Z" fill="#7E8590"/>
<path d="M58.2856 46.9158H55.5081V38.7903H58.2856C60.8195 38.7903 62.4519 40.5567 62.4519 42.8591C62.4519 45.1737 60.8195 46.9158 58.2856 46.9158ZM58.2856 46.0143C60.2591 46.0143 61.4042 44.6011 61.4042 42.8591C61.4042 41.1049 60.2956 39.6917 58.2856 39.6917H56.5192V46.0143H58.2856Z" fill="#7E8590"/>
<path d="M66.6693 47.0619C65.2683 47.0619 64.2207 46.5259 63.5507 45.7706L64.1598 44.991C64.6836 45.6001 65.5607 46.1605 66.7058 46.1605C68.1555 46.1605 68.6184 45.3808 68.6184 44.7473C68.6184 42.652 63.8065 43.8215 63.8065 40.9221C63.8065 39.5821 65.0003 38.6562 66.6084 38.6562C67.8388 38.6562 68.8012 39.0826 69.4834 39.8014L68.8743 40.5445C68.2652 39.8623 67.4124 39.5699 66.5231 39.5699C65.5607 39.5699 64.8541 40.0937 64.8541 40.8612C64.8541 42.6885 69.6661 41.6409 69.6661 44.6742C69.6661 45.8437 68.8621 47.0619 66.6693 47.0619Z" fill="#7E8590"/>
<path d="M75.3397 46.9158H74.3285V38.7903H77.5934C79.2258 38.7903 80.1394 39.911 80.1394 41.2389C80.1394 42.5667 79.2136 43.6875 77.5934 43.6875H75.3397V46.9158ZM77.4715 42.786C78.4339 42.786 79.0918 42.1525 79.0918 41.2389C79.0918 40.3252 78.4339 39.6917 77.4715 39.6917H75.3397V42.786H77.4715Z" fill="#7E8590"/>
<path d="M87.4946 46.9158H86.3373L85.6186 45.1006H81.5741L80.8553 46.9158H79.698L82.975 38.7903H84.2298L87.4946 46.9158ZM85.3262 44.2113L83.5963 39.8257L81.8786 44.2113H85.3262Z" fill="#7E8590"/>
<path d="M94.4531 46.9158H93.2592L91.2005 43.6875H89.568V46.9158H88.5569V38.7903H91.8217C93.308 38.7903 94.38 39.7405 94.38 41.2389C94.38 42.7007 93.3689 43.5048 92.2603 43.6022L94.4531 46.9158ZM91.6999 42.7982C92.6623 42.7982 93.3323 42.1525 93.3323 41.2389C93.3323 40.313 92.6623 39.6917 91.6999 39.6917H89.568V42.7982H91.6999Z" fill="#7E8590"/>
<path d="M99.0016 46.9158H97.9905V39.6917H95.4201V38.7903H101.584V39.6917H99.0016V46.9158Z" fill="#7E8590"/>
<path d="M109.653 46.9158H108.678L103.939 40.4348V46.9158H102.928V38.7903H103.964L108.642 45.1372V38.7903H109.653V46.9158Z" fill="#7E8590"/>
<path d="M116.877 46.9158H111.553V38.7903H116.877V39.6917H112.564V42.3109H116.791V43.2124H112.564V46.0143H116.877V46.9158Z" fill="#7E8590"/>
<path d="M124.385 46.9158H123.191L121.132 43.6875H119.5V46.9158H118.489V38.7903H121.754C123.24 38.7903 124.312 39.7405 124.312 41.2389C124.312 42.7007 123.301 43.5048 122.192 43.6022L124.385 46.9158ZM121.632 42.7982C122.594 42.7982 123.264 42.1525 123.264 41.2389C123.264 40.313 122.594 39.6917 121.632 39.6917H119.5V42.7982H121.632Z" fill="#7E8590"/>
<defs>
<clipPath id="clip0_570_1716">
<rect width="108.529" height="34.3544" fill="white" transform="translate(15.5234)"/>
</clipPath>
</defs>
</svg>
