<svg width="56" height="56" viewBox="0 0 56 56" fill="none" xmlns="http://www.w3.org/2000/svg">
<path d="M24.8871 24.3578L24.2262 24.8472L21.0352 24.8359C16.4051 24.8195 15.632 24.6265 12.3931 22.6816C10.9931 21.8416 9.41272 21.1202 8.60046 20.9512C7.40983 20.7027 4.72082 20.849 4.37524 21.1807C4.31974 21.235 4.14191 21.2526 3.9792 21.2223C3.732 21.1744 3.67146 21.0634 3.59704 20.516C3.54785 20.1578 3.42803 19.2687 3.32965 18.5409C3.01055 16.1836 2.77596 12.2422 2.7747 9.24793L2.77344 6.32433L3.4356 6.07712C3.8001 5.94091 5.00587 5.59406 6.11578 5.30523C9.192 4.50685 8.69001 4.61658 12.2329 3.97334C13.0994 3.81568 14.3909 3.63154 17.0888 3.28217C22.6711 2.56073 33.2266 2.56199 38.7017 3.28721C42.3367 3.76775 43.0707 3.88127 45.9716 4.4173C47.1547 4.6355 51.0482 5.63064 52.0257 5.96487L52.9086 6.26631L52.9477 8.02073C52.9956 10.2342 52.7761 15.0548 52.5264 17.2696C52.3284 19.0139 51.979 21.3409 51.9033 21.4166C51.8794 21.4405 51.6423 21.4002 51.3749 21.3258C50.748 21.1517 48.2242 21.1517 46.9579 21.3245C45.6891 21.4998 44.3698 21.9438 42.9446 22.6741C39.374 24.5067 39.3122 24.5269 36.6042 24.6568L34.6783 24.7501L33.6479 24.0728C32.6603 23.4245 32.5733 23.393 31.5378 23.3135C30.9437 23.2668 29.6471 23.224 28.657 23.2189C26.9518 23.2076 26.8206 23.2252 26.2026 23.538C25.8432 23.7196 25.2516 24.0892 24.8871 24.3578ZM28.6646 51.6944C28.2333 51.9126 27.8637 52.0904 27.8435 52.0904C27.7325 52.0904 24.4217 50.2301 23.1378 49.4456C21.4061 48.3886 19.5053 47.1085 19.301 46.8625C18.9718 46.4652 20.5963 42.7533 22.014 40.6609C22.999 39.2092 24.2212 37.8231 25.2289 37.0146L25.9655 36.4231L25.5531 35.8227C24.5277 34.3319 24.6462 32.7705 25.8936 31.3427C26.1358 31.0652 26.3653 30.8697 26.4044 30.9076C26.4435 30.9454 26.3931 31.2519 26.2909 31.5899C26.0563 32.3719 26.0588 32.7124 26.3098 33.5587C26.5646 34.4177 27.4349 35.3396 28.2106 35.5717C28.686 35.713 28.845 35.6953 29.8061 35.3964C31.2035 34.96 31.8241 34.9714 33.0185 35.4481C33.5709 35.6701 34.0969 35.805 34.2545 35.7647C34.6014 35.6777 35.314 34.8768 35.314 34.5741C35.314 34.4479 35.1979 34.2411 35.0554 34.1112C34.8334 33.9106 34.7414 33.8993 34.4021 34.0267C33.9064 34.2133 33.8358 34.1477 34.1006 33.7454C34.6064 32.9735 35.43 32.865 36.1615 33.473C36.405 33.6748 36.7442 33.787 37.2689 33.84C38.0244 33.9169 38.0257 33.9169 38.3107 33.4818C38.6891 32.9029 38.8455 32.9319 38.848 33.5814C38.8506 33.9182 38.9426 34.2348 39.0978 34.4328C39.4585 34.8932 39.4068 35.1694 38.8115 35.9766C38.3107 36.6551 38.2451 36.6993 37.7507 36.7018C37.3106 36.7031 37.1731 36.7686 36.912 37.1016C36.6055 37.4939 36.5778 37.5014 35.1437 37.6049C34.2394 37.6704 33.5659 37.6641 33.3653 37.5885C33.0651 37.475 33.0235 37.509 32.7208 38.1056C32.2479 39.0377 31.9086 40.5083 31.9086 41.6195C31.9086 43.8342 32.9163 45.8888 34.6922 47.2926L35.285 47.7618L33.6592 48.7973C31.93 49.8971 29.9536 51.0436 28.6646 51.6944ZM20.73 31.3465C20.2533 31.455 19.7639 31.5735 19.6428 31.6088C19.5079 31.6492 19.4221 31.6076 19.4221 31.5016C19.4221 31.2494 20.0943 30.2303 20.6833 29.5921C21.2471 28.9804 21.1979 28.8832 20.3264 28.8832C19.5356 28.882 16.1151 28.3964 15.3861 28.182C13.7237 27.6926 12.494 26.8602 10.3524 24.7728C9.54893 23.9896 8.63452 23.1546 8.32046 22.9162C7.51074 22.302 6.30749 21.7218 5.41073 21.5124C4.98695 21.4128 4.60227 21.2917 4.55812 21.2438C4.51272 21.1946 5.10046 21.1883 5.86353 21.2274C8.04425 21.3422 8.8338 21.6802 11.3626 23.5809C14.1097 25.6456 15.6093 26.2636 18.4093 26.4818C21.4729 26.7214 25.7624 26.8816 25.8823 26.7618C25.9479 26.6962 26.0324 26.4112 26.0702 26.1261C26.1509 25.5207 26.2947 25.5611 26.6214 26.2813C27.2823 27.7355 26.5028 29.0094 24.2779 30.1142C23.3471 30.5759 21.8828 31.0854 20.73 31.3465ZM20.0527 5.70127V16.2706L21.0933 16.2694C22.5298 16.2694 23.5792 16.0802 23.8933 15.7649C24.1417 15.5164 24.1531 15.3461 24.1897 11.1878C24.1909 10.9935 24.1922 10.8069 24.1947 10.6265C24.2237 7.38505 24.2351 6.17424 23.6662 5.75676C23.3257 5.50829 22.7808 5.54109 21.9093 5.59406C21.8286 5.5991 21.7441 5.60415 21.657 5.60919L20.0527 5.70127ZM25.4761 15.6085V16.1445H26.9569L27.0351 15.6715C27.0779 15.4117 27.1133 14.9854 27.1145 14.7256C27.1158 14.2602 27.1233 14.2526 27.6077 14.2526H28.0996L28.2761 16.0184H29.0657C29.8124 16.0184 29.854 16.0032 29.8149 15.7346C29.7934 15.5782 29.685 14.4859 29.574 13.3067C29.463 12.1274 29.294 10.3969 29.1981 9.45982C29.1023 8.52271 28.9888 7.33082 28.9459 6.81118C28.8841 6.04433 28.8752 5.70001 28.6999 5.54613C28.5574 5.42001 28.3039 5.42127 27.8208 5.42379C27.7578 5.42379 27.6922 5.42379 27.6228 5.42379H26.5079L26.4372 5.89676C26.3489 6.48451 26.1749 8.14181 25.9151 10.8472C25.8053 11.9912 25.6615 13.4101 25.596 14.0004C25.5304 14.5906 25.4761 15.3133 25.4761 15.6085ZM42.6129 16.9391C42.7958 16.9669 43.1477 16.9984 43.3961 17.0085C43.8161 17.0261 43.8439 17.0034 43.8098 16.6805C43.7897 16.4901 43.6824 15.3688 43.5727 14.1896C43.4617 13.0103 43.2915 11.3076 43.1956 10.4058C43.0985 9.50397 42.9812 8.29568 42.9345 7.72054C42.8336 6.49208 42.8248 6.48325 41.4702 6.36091L40.5179 6.27514L40.441 6.82631C40.3981 7.13027 40.3061 8.00307 40.2342 8.76613C40.1635 9.52919 40.0513 10.6353 39.9857 11.2256C39.6767 13.9865 39.4396 16.5292 39.4875 16.5733C39.5152 16.5998 39.8797 16.6427 40.296 16.6667L41.0527 16.7121L41.1788 14.9463L42.1059 14.8694L42.1942 15.8784C42.2787 16.8432 42.2963 16.8899 42.6129 16.9391ZM46.8545 17.4802C48.0376 17.7198 48.643 17.6984 48.9356 17.4058C49.1664 17.175 49.1879 16.9858 49.1879 15.1935C49.1879 12.8198 49.0996 12.5814 47.8774 11.6595C47.4246 11.3164 46.992 10.8888 46.9163 10.7097C46.8394 10.5306 46.7952 10.0476 46.8167 9.63766C46.8495 8.98937 46.8873 8.89226 47.1068 8.89226C47.325 8.89226 47.3641 8.98937 47.3969 9.60613C47.4385 10.4032 47.441 10.4058 48.474 10.5344L49.1879 10.624V9.58847C49.1879 8.30577 48.9797 7.80505 48.3302 7.52631C47.1131 7.00541 45.7181 6.89946 45.3549 7.30055C45.0648 7.62091 44.9324 9.86217 45.143 10.8737C45.3044 11.6443 45.4545 11.8398 46.7082 12.9043L47.4221 13.5123V14.7016C47.4221 15.7863 47.4006 15.8923 47.1837 15.8923C46.8722 15.8923 46.7915 15.6564 46.7915 14.747C46.7915 14.1202 46.7561 14.0004 46.5707 13.9991C46.4497 13.9991 46.0435 13.9613 45.6677 13.9159L44.9853 13.8339L45.0661 15.0838C45.1115 15.7712 45.1846 16.4636 45.2288 16.6225C45.3322 16.9896 45.8922 17.2859 46.8545 17.4802ZM11.35 16.8016C11.6288 17.0287 11.7839 17.0501 12.6743 16.9883C14.8677 16.8332 15.1338 16.5393 15.1338 14.2665V12.8312L14.5486 12.9106C14.227 12.9548 13.8297 12.9914 13.6657 12.9914C13.3743 12.9914 13.368 13.0178 13.368 14.1303C13.368 15.0586 13.3302 15.2843 13.1662 15.3474C13.0552 15.389 12.914 15.3449 12.8522 15.249C12.7891 15.1519 12.7525 13.54 12.7702 11.667C12.8005 8.26541 12.8005 8.26163 13.0779 8.22253C13.3352 8.18595 13.3579 8.24018 13.3933 8.97928L13.4311 9.77514L14.1879 9.72973C14.6041 9.70451 14.9875 9.6591 15.0392 9.62757C15.0909 9.59604 15.1338 9.10667 15.1325 8.53784C15.1313 6.47946 14.8412 6.16919 13.1498 6.42145C12.6138 6.50091 11.9743 6.66361 11.7309 6.78343C10.9931 7.14415 10.9578 7.41406 10.9981 12.2699L11.0347 16.5456L11.35 16.8016ZM6.46137 12.8463C6.44245 15.6312 6.46641 17.9103 6.51434 17.9103C6.56101 17.9103 6.95956 17.8472 7.39848 17.7715L8.19686 17.6315V12.8854L8.57524 12.8123L9.332 12.6659C9.70659 12.5941 9.71037 12.584 9.71037 11.7667V10.9405L9.2374 11.0225C9.16803 11.0351 9.10245 11.0465 9.04191 11.0578C8.6547 11.1259 8.45794 11.1613 8.35452 11.0793C8.2347 10.9822 8.24353 10.7223 8.22335 10.1649C8.18046 9.03604 8.1956 9.01334 9.10497 8.88847L9.71037 8.80523V7.93496C9.71037 7.45568 9.66749 7.06595 9.61578 7.06973C9.56407 7.07352 8.8401 7.23622 8.00767 7.42919L6.49416 7.78109L6.46137 12.8463ZM36.7228 28.636C36.5374 28.7798 36.2902 29.1065 36.1729 29.3625L35.9585 29.8292L35.763 29.36C35.4325 28.5705 35.5259 28.0407 36.1098 27.4C36.3583 27.1276 36.3608 27.0973 36.159 26.6748C36.014 26.3721 35.9951 26.2346 36.0972 26.2346C36.1792 26.2346 37.0432 26.1715 38.0169 26.0959C40.3035 25.9155 40.7651 25.7377 42.676 24.2897C43.5172 23.6528 44.4052 23.0108 44.6486 22.862C45.9615 22.0649 48.3188 21.433 49.8815 21.4595L50.6383 21.4721L49.8815 21.6234C48.0552 21.9905 46.326 22.7459 45.1518 23.6906C44.839 23.9416 43.9688 24.7526 43.217 25.4942C41.3479 27.3369 40.7689 27.6245 37.6688 28.2526C37.3345 28.3207 36.9082 28.4935 36.7228 28.636ZM32.3185 16.176C32.9605 16.2 33.6125 16.2303 33.7689 16.2441C34.0363 16.2694 34.0527 16.2252 34.0527 15.4508V14.631H32.9176V5.54991H31.1518V16.1344L32.3185 16.176ZM36.7644 16.4346C37.1806 16.4573 37.7079 16.4863 37.9374 16.4989L38.3536 16.5229L38.3158 15.7346L38.2779 14.9463L37.1428 14.8202L37.076 5.80217L36.5424 5.80091C36.2486 5.79964 35.8803 5.76433 35.7239 5.72271L35.4401 5.64703V16.2656L35.7239 16.3299C35.8803 16.3652 36.3482 16.4132 36.7644 16.4346ZM24.4154 46.8877C24.3019 47.1135 24.2426 47.2977 24.2842 47.2977C24.3259 47.2977 24.896 46.9773 25.5518 46.5876L26.7424 45.8762L27.4866 46.5245C28.3367 47.2636 28.5549 47.3317 28.454 46.8247C28.4161 46.6342 28.372 46.1373 28.3556 45.7211L28.3279 44.9643L30.9008 43.4508L28.2824 43.3789L28.2055 42.911C28.1626 42.6524 28.1273 42.1719 28.126 41.8427C28.1248 41.5135 28.0819 41.2449 28.0302 41.2449C27.9785 41.2461 27.5976 41.7279 27.1864 42.3169L26.436 43.3877L25.1053 43.3928L23.7734 43.3978L24.645 44.1937L25.5178 44.9896L25.07 45.7337C24.8241 46.1423 24.5302 46.662 24.4154 46.8877ZM28.8815 21.356C29.0556 21.3914 29.7846 21.409 30.5023 21.3964C31.6261 21.375 31.8329 21.3371 31.9842 21.1303C32.2088 20.8238 32.2075 20.5463 31.9817 20.236C31.8253 20.0216 31.645 19.9914 30.5313 19.9914C29.5979 19.9914 29.2599 19.9497 29.2599 19.8337C29.2599 19.7177 29.6219 19.676 30.6473 19.676C31.9502 19.676 32.0347 19.6609 32.0347 19.4238C32.0347 19.1841 31.9502 19.1715 30.3736 19.1715C28.3518 19.1715 28.2509 19.2258 28.2509 20.3105C28.2509 21.076 28.3556 21.2488 28.8815 21.356ZM23.5842 21.2047C23.5842 21.4658 23.6208 21.4696 25.3008 21.4204C26.9165 21.3737 27.0325 21.3535 27.2558 21.0773C27.5862 20.6699 27.5787 19.7605 27.2419 19.4238C27.0174 19.1993 26.8219 19.1715 25.4383 19.1715C23.728 19.1715 23.5842 19.227 23.5842 19.8854C23.5842 20.4719 23.8769 20.5829 25.2958 20.5362C26.2493 20.5034 26.4751 20.5299 26.4233 20.6636C26.388 20.7557 26.359 20.8553 26.359 20.8843C26.359 20.9133 25.7347 20.9373 24.9716 20.9373C23.6435 20.9373 23.5842 20.9487 23.5842 21.2047ZM32.799 29.4622C33.0097 29.7687 33.137 30.0133 33.0815 30.0058C33.026 29.9995 32.5833 29.8494 32.0978 29.6715C31.4179 29.4243 30.8958 29.336 29.8275 29.2919C29.0644 29.2604 28.3947 29.1923 28.3405 29.1418C28.2307 29.0409 29.2788 27.815 29.6383 27.622C29.9713 27.4441 31.2729 27.9259 31.8947 28.4595C32.1823 28.7054 32.5884 29.1557 32.799 29.4622ZM22.4491 7.56793V14.602L22.1363 14.6613C21.9648 14.6941 21.7945 14.6915 21.7579 14.655C21.7226 14.6184 21.6924 13.009 21.6924 11.078V7.56793H22.4491ZM27.9545 11.8878L28.0315 12.613H27.2066L27.2898 11.8247C27.3365 11.3908 27.4097 10.6252 27.4525 10.122C27.4954 9.61874 27.5724 9.20757 27.6215 9.20757C27.6707 9.20757 27.7489 9.64775 27.7943 10.185C27.841 10.7223 27.9129 11.4892 27.9545 11.8878ZM41.9495 12.2661L42.034 13.2436H41.6241C41.2306 13.2436 41.2167 13.2259 41.2835 12.8337C41.3226 12.6079 41.392 11.9697 41.4387 11.4148C41.5951 9.57082 41.7363 9.80793 41.9495 12.2661ZM45.2893 45.9103L45.09 45.3427L45.0143 45.9733C44.9399 46.5964 44.9387 46.5926 44.9197 45.7526C44.9008 44.9416 45.0648 44.6074 45.2313 45.122C45.5579 46.1398 45.674 46.1928 45.8733 45.4146C46.0751 44.62 46.2895 44.7978 46.2668 45.7425C46.2479 46.585 46.2453 46.5901 46.1722 45.9733L46.0965 45.3427L45.9086 45.8914C45.8039 46.1928 45.6677 46.4476 45.6033 46.4589C45.5403 46.469 45.399 46.2231 45.2893 45.9103ZM31.0888 20.685C31.0888 20.8301 30.8945 20.8831 30.2488 20.9108C29.7215 20.9348 29.3747 20.8957 29.3192 20.8061C29.1527 20.5362 29.4756 20.4202 30.2815 20.458C30.8983 20.487 31.0888 20.54 31.0888 20.685ZM26.4221 19.8652C26.4221 19.9346 26.0109 20.0078 25.5077 20.0279C24.7408 20.0595 24.5933 20.033 24.5933 19.8652C24.5933 19.6975 24.7408 19.671 25.5077 19.7025C26.0109 19.7227 26.4221 19.7959 26.4221 19.8652Z" fill="#7E8590"/>
<path d="M29.9554 53.8053C28.9716 54.3174 28.0534 54.7374 27.9159 54.7374C27.3875 54.7374 24.0691 52.9716 21.5668 51.3585C19.6484 50.1225 18.8298 49.5145 16.9203 47.9077C9.58099 41.7338 4.71126 33.6138 2.48261 23.8365C1.32982 18.7725 0.871984 13.3958 1.13433 7.99758C1.21252 6.41596 1.30207 5.07776 1.33487 5.02479C1.51144 4.73848 6.77469 3.31704 9.65415 2.77722C12.8653 2.1756 16.3905 1.72912 20.1794 1.44533C23.8332 1.17164 33.9561 1.23722 37.1433 1.5538C41.3232 1.97002 43.8684 2.33326 47.3684 3.01308C48.9576 3.32083 52.5219 4.28443 53.821 4.75614C54.2763 4.92137 54.3684 5.01596 54.4516 5.40695C54.6181 6.18767 54.5651 14.9156 54.3835 16.6473C53.4779 25.297 51.1156 32.3765 47.0619 38.5933C42.9199 44.9437 37.1938 50.0367 29.9554 53.8053ZM26.4705 53.456C27.1857 53.8142 27.8226 54.1068 27.8869 54.1068C28.0686 54.1068 30.1887 53.0221 31.6568 52.1783C43.5228 45.3587 50.9983 34.4021 53.2761 20.4942C53.8462 17.0118 53.9143 15.9599 53.9168 10.6828C53.9181 6.28984 53.8916 5.52173 53.7327 5.42461C53.5662 5.32119 52.8952 5.10047 51.2064 4.5947C50.7158 4.44839 49.8241 4.23146 47.3141 3.64749C46.126 3.37128 43.094 2.87182 40.9271 2.5956C28.5163 1.01272 13.5956 1.90191 3.84604 4.80785C2.61126 5.17488 2.16478 5.27326 1.98316 5.54695C1.85577 5.73993 1.85829 6.0174 1.81036 6.53704C1.65649 8.20065 1.69307 13.8334 1.8709 15.8906C2.64658 24.8543 5.02658 32.0435 9.40694 38.6563C10.8536 40.8408 12.3646 42.6507 14.621 44.9059C18.2143 48.4954 21.9615 51.1983 26.4705 53.456ZM36.7233 28.6343C36.9087 28.4918 37.335 28.319 37.6693 28.2509C40.7695 27.6228 41.3484 27.3352 43.2176 25.4925C43.9693 24.7509 44.8396 23.9399 45.1523 23.6889C46.3266 22.7443 48.0558 21.9888 49.8821 21.6217L50.6388 21.4704L49.8821 21.4578C49.7862 21.4552 49.6891 21.4565 49.5882 21.4603C49.8493 21.4426 50.1167 21.4325 50.3866 21.43C52.1763 21.4086 51.417 21.2169 49.481 21.2005C47.9662 21.1879 46.7983 21.2938 45.6796 21.5852C46.1134 21.4679 46.5385 21.3808 46.9585 21.3228C48.2248 21.15 50.7486 21.15 51.3754 21.3241C51.6428 21.3985 51.8799 21.4388 51.9039 21.4149C51.9127 21.4061 51.9266 21.3619 51.9442 21.2888C49.848 32.9907 44.6113 41.2684 35.2514 47.7336L34.6927 47.2909C32.9169 45.8871 31.9091 43.8325 31.9091 41.6178C31.9091 40.5066 32.2484 39.036 32.7214 38.1039C33.0241 37.5073 33.0657 37.4733 33.3659 37.5868C33.5664 37.6625 34.2399 37.6688 35.1442 37.6032C36.5783 37.4998 36.606 37.4922 36.9125 37.0999C37.1736 36.767 37.3111 36.7014 37.7513 36.7001C38.2457 36.6976 38.3113 36.6534 38.812 35.9749C39.4073 35.1677 39.459 34.8915 39.0983 34.4311C38.9432 34.2331 38.8511 33.9165 38.8486 33.5798C38.8473 33.2039 38.7943 33.0361 38.6758 33.0727L38.8561 32.8798L38.5055 32.4888C38.3113 32.2731 37.6567 31.5806 37.05 30.9488C36.5972 30.4783 36.2529 30.076 36.0082 29.719L36.1734 29.3608C36.2907 29.1048 36.5379 28.7781 36.7233 28.6343ZM6.06838 20.8524C5.23469 20.923 4.41361 21.0668 4.41487 21.1689C4.41487 21.1853 4.49306 21.2005 4.62676 21.2143C4.57252 21.2206 4.5473 21.2307 4.55865 21.2421C4.6028 21.29 4.98748 21.4111 5.41126 21.5107C6.30802 21.7201 7.51126 22.3003 8.32099 22.9145C8.63505 23.1529 9.54946 23.9879 10.3529 24.7711C12.4945 26.8585 13.7242 27.6909 15.3866 28.1803C16.1156 28.3947 19.5361 28.8803 20.3269 28.8816C21.1531 28.8816 21.2401 28.9686 20.7671 29.497C21.2464 28.9307 21.114 28.8816 20.1264 28.8816C19.5349 28.8816 19.3671 28.9484 18.5914 29.497C16.0298 31.3044 13.4026 33.6201 11.3581 35.8727C10.3668 36.9637 10.0023 37.2904 9.88243 37.1907C9.79415 37.1176 9.36279 36.4529 8.92261 35.7138C6.3837 31.447 4.65451 26.5987 3.69216 20.9835C3.75018 21.1399 3.8309 21.1916 3.97973 21.2206C4.14243 21.2509 4.32027 21.2333 4.37577 21.179C4.54099 21.0201 5.2473 20.9028 6.06838 20.8524ZM34.1781 26.3464C34.1768 26.5268 34.0469 26.9531 33.8893 27.2936L33.603 27.9116L33.3848 27.5774C33.2637 27.3945 32.8689 27.0956 32.5057 26.914C31.7073 26.5142 31.2785 26.1396 31.2785 25.8406C31.2785 25.6754 31.3756 25.6225 31.6581 25.63C32.1349 25.6439 32.2597 25.5253 32.0617 25.2491C31.6682 24.7005 31.6064 24.4646 31.8044 24.2653C31.9759 24.0938 32.0806 24.1304 32.8046 24.6261C33.6938 25.234 34.1806 25.8432 34.1781 26.3464ZM3.47775 19.6327C3.00856 16.4266 2.77649 12.9745 2.77523 9.24623C2.77649 12.2405 3.01108 16.1819 3.33018 18.5392C3.37811 18.8924 3.43108 19.2834 3.47775 19.6327ZM17.8359 24.737C17.0716 24.6967 16.6592 24.6387 16.3325 24.5466C16.1723 24.5025 15.9932 24.4432 15.799 24.3713C16.4132 24.5592 17.0514 24.6702 17.8359 24.737ZM22.2352 24.8379L24.2268 24.8455L24.1952 24.8682L22.2352 24.8379ZM22.2895 30.9046C23.0223 30.6637 23.7399 30.3799 24.2785 30.1125C24.9835 29.7632 25.5435 29.3949 25.9585 29.0115C25.3278 29.5967 24.363 30.1428 23.0614 30.6486C22.8759 30.7217 22.6035 30.81 22.2895 30.9046ZM48.1592 21.6255C47.4756 21.7529 46.7668 21.9459 46.1197 22.1805C46.739 21.9383 47.4239 21.7516 48.1592 21.6255ZM35.655 29.0619C35.4318 28.4489 35.6008 27.9583 36.1104 27.3983C35.6021 27.9558 35.4659 28.4288 35.655 29.0619ZM28.6651 51.6927C29.3992 51.3219 30.3565 50.7909 31.3642 50.1981C30.3275 50.8124 29.4383 51.3055 28.6651 51.694C28.2376 51.9084 27.8718 52.085 27.8453 52.0888C27.8718 52.085 28.2376 51.9084 28.6651 51.6927ZM7.03703 21.3329C7.66514 21.4161 8.21252 21.5826 8.8255 21.8916C8.22766 21.5927 7.68406 21.4288 7.03703 21.3329ZM12.8779 22.9688C12.7177 22.8767 12.5588 22.7834 12.4037 22.69C11.6583 22.2397 10.8599 21.8235 10.1536 21.507C10.8561 21.821 11.6507 22.2334 12.3936 22.6799C12.5614 22.7808 12.7228 22.8767 12.8779 22.9688ZM38.3289 33.4524C38.3226 33.4612 38.3176 33.47 38.3113 33.4801C38.2268 33.6075 38.1675 33.6983 38.1069 33.7601C38.141 33.692 38.223 33.5785 38.3289 33.4524ZM44.1761 23.1832C43.7801 23.4644 43.2188 23.8781 42.6765 24.288C43.3361 23.7886 43.8003 23.443 44.1761 23.1832ZM37.9266 33.8623C37.8118 33.8888 37.6529 33.8774 37.3817 33.8497C37.6024 33.8698 37.7979 33.8736 37.9266 33.8623ZM19.4226 31.4924C19.4226 31.4949 19.4226 31.4974 19.4226 31.4999C19.4226 31.539 19.434 31.5706 19.4567 31.5907C19.4453 31.5895 19.4377 31.587 19.434 31.5844C19.4188 31.568 19.415 31.5365 19.4226 31.4924ZM24.8877 24.3561C25.2522 24.0875 25.8437 23.7179 26.2032 23.5363C25.8437 23.7179 25.2459 24.0925 24.8725 24.3675L24.8877 24.3561ZM52.3327 18.8243C52.4033 18.3008 52.4702 17.761 52.5269 17.2679C52.4677 17.7925 52.4021 18.3109 52.3327 18.8243ZM8.05865 20.87C8.25919 20.8902 8.44334 20.9154 8.60099 20.9495C8.46225 20.9205 8.27054 20.8927 8.05865 20.87ZM37.2026 33.832C36.9239 33.7992 36.6994 33.75 36.5152 33.6756C36.6968 33.7488 36.9201 33.7979 37.2026 33.832Z" fill="#7E8590"/>
</svg>
