<svg width="204" height="46" viewBox="0 0 204 46" fill="none" xmlns="http://www.w3.org/2000/svg">
<path d="M74.0938 20.7852H79.8091L82.2537 29.8349H82.3644L84.912 20.7852H90.3759V43.4628H86.4217V27.5275H86.3497L83.8021 37.1926H80.7107L78.0812 27.5619H78.0092V43.4628H74.0938V20.7852Z" fill="#7E8590"/>
<path d="M96.5966 34.5219L91.8516 20.7852H96.5966L99.1132 29.2938L101.521 20.7852H105.799L101.09 34.5608V43.4661H96.5966V34.5219Z" fill="#7E8590"/>
<path d="M106.664 37.8394V26.3012C106.664 22.5517 109.504 20.4609 113.17 20.4609C116.55 20.4609 119.461 22.3362 119.461 25.8334V28.2131H115.362V26.1934C115.279 25.0676 114.314 24.215 113.19 24.2739C112.066 24.3328 111.195 25.2816 111.229 26.41V37.7672C111.147 38.3397 111.326 38.9188 111.716 39.3449C112.106 39.771 112.665 39.9993 113.241 39.9668C113.771 40.0362 114.303 39.8519 114.678 39.4692C115.052 39.0865 115.226 38.5496 115.146 38.0193V34.8821H112.846V31.4937H119.492V38.2704C119.492 41.8399 117.047 43.8584 113.237 43.8584C109.467 43.824 106.664 41.7688 106.664 37.8394Z" fill="#7E8590"/>
<path d="M121.758 37.5859V26.5876C121.758 22.5493 124.598 20.4219 128.336 20.4219C131.967 20.4219 134.879 22.3327 134.879 26.5154V37.5137C134.879 41.7353 131.967 43.7872 128.301 43.7872C124.416 43.8227 121.758 41.8397 121.758 37.5859ZM130.349 37.697V26.4087C130.392 25.8514 130.19 25.3029 129.796 24.9077C129.402 24.5124 128.855 24.3099 128.299 24.3535C127.74 24.3077 127.19 24.516 126.8 24.921C126.41 25.3261 126.222 25.8851 126.287 26.4443V37.6581C126.227 38.4192 126.596 39.1499 127.243 39.5525C127.89 39.955 128.706 39.9622 129.36 39.571C130.013 39.1798 130.395 38.4556 130.349 37.6937V37.697Z" fill="#7E8590"/>
<path d="M137.359 20.7852H141.816V39.6056H148.287V43.4639H137.359V20.7852Z" fill="#7E8590"/>
<path d="M150.375 20.7852H161.23V24.5712H154.831V30.0515H159.935V33.9098H154.831V43.5006H150.375V20.7852Z" fill="#7E8590"/>
<path d="M162.375 37.2632L166.545 37.1188C166.689 38.5253 166.976 40.1472 168.558 40.1472C169.816 40.1472 170.211 39.0652 170.211 38.0564C170.211 36.8344 169.421 35.8934 168.127 34.667L165.969 32.5351C163.957 30.6242 162.698 28.749 162.698 26.2616C162.615 24.6563 163.227 23.0931 164.378 21.9739C165.528 20.8547 167.105 20.2887 168.702 20.4214C171.542 20.4214 174.166 21.9 174.351 26.8393L170.433 26.9837C170.289 25.3251 169.894 24.0275 168.492 24.0275C167.378 24.0275 166.875 24.8929 166.875 25.9383C166.875 27.1603 168.094 28.2813 169.176 29.3278L171.182 31.313C173.375 33.4038 174.597 35.3513 174.597 37.9109C174.662 39.5365 174.039 41.1141 172.882 42.2541C171.724 43.3941 170.141 43.9903 168.521 43.8955C164.783 43.8244 162.591 41.3015 162.375 37.2632Z" fill="#7E8590"/>
<path d="M176.828 20.7852H183.695C187.398 20.7852 189.234 23.237 189.234 27.7074C189.234 32.3589 187.472 35.1707 183.518 35.1707H181.29V43.4272H176.828V20.7852ZM182.831 31.5291C184.161 31.5291 184.844 30.307 184.844 27.8152C184.844 25.58 184.269 24.4979 182.867 24.4979H181.285V31.5279L182.831 31.5291Z" fill="#7E8590"/>
<path d="M194.479 34.5219L189.734 20.7852H194.479L196.996 29.2938L199.404 20.7852H203.682L198.937 34.5608V43.4661H194.479V34.5219Z" fill="#7E8590"/>
<path d="M76.6215 15.1922V8.5673H78.2655V7.03286H73.2969V8.5673H74.9409V15.1922H76.6215ZM80.9326 15.1922V12.3669H81.6632L82.7106 15.1922H84.6591L83.2586 12.0746C84.0623 11.6605 84.5007 10.8446 84.5007 9.69986C84.5007 8.00711 83.5387 7.03286 81.8703 7.03286H79.2642V15.1922H80.9326ZM81.6876 10.8811H80.9326V8.5673H81.6876C82.4183 8.5673 82.8323 8.99353 82.8323 9.72422C82.8323 10.4549 82.4183 10.8811 81.6876 10.8811ZM87.2165 15.1922V7.03286H85.5481V15.1922H87.2165ZM92.8793 15.1922V13.6578H90.2488V11.831H92.4896V10.3209H90.2488V8.5673H92.8793V7.03286H88.5804V15.1922H92.8793ZM96.6301 15.1922C98.2133 15.1922 99.2606 14.2058 99.2606 12.6957V9.52937C99.2606 8.01928 98.2133 7.03286 96.6301 7.03286H94.0849V15.1922H96.6301ZM96.5814 13.6578H95.7533V8.5673H96.5814C97.2147 8.5673 97.5922 8.96918 97.5922 9.57808V12.647C97.5922 13.2559 97.2147 13.6578 96.5814 13.6578ZM101.124 15.3018C101.733 15.3018 102.135 14.8999 102.135 14.3032C102.135 13.7065 101.733 13.3046 101.124 13.3046C100.515 13.3046 100.113 13.7065 100.113 14.3032C100.113 14.8999 100.515 15.3018 101.124 15.3018ZM108.321 15.1922V8.5673H109.965V7.03286H104.997V8.5673H106.641V15.1922H108.321ZM115.263 15.1922V13.6578H112.632V11.831H114.873V10.3209H112.632V8.5673H115.263V7.03286H110.964V15.1922H115.263ZM118.709 15.3383C120.219 15.3383 121.218 14.4372 121.218 12.8662C121.218 9.91907 117.857 10.6132 117.857 9.15185C117.857 8.68908 118.173 8.42116 118.648 8.42116C119.147 8.42116 119.464 8.70126 119.464 9.13967V9.41977H121.096V9.11531C121.096 7.7879 120.134 6.88672 118.636 6.88672C117.162 6.88672 116.176 7.75137 116.176 9.26145C116.176 12.1111 119.549 11.49 119.549 12.9758C119.549 13.4751 119.208 13.8039 118.685 13.8039C118.149 13.8039 117.796 13.4751 117.796 12.9758V12.647H116.139V12.9514C116.139 14.4006 117.162 15.3383 118.709 15.3383ZM125.2 15.1922V8.5673H126.844V7.03286H121.875V8.5673H123.519V15.1922H125.2ZM132.142 15.1922V13.6578H129.511V11.831H131.752V10.3209H129.511V8.5673H132.142V7.03286H127.843V15.1922H132.142ZM135.892 15.1922C137.476 15.1922 138.523 14.2058 138.523 12.6957V9.52937C138.523 8.01928 137.476 7.03286 135.892 7.03286H133.347V15.1922H135.892ZM135.844 13.6578H135.016V8.5673H135.844C136.477 8.5673 136.854 8.96918 136.854 9.57808V12.647C136.854 13.2559 136.477 13.6578 135.844 13.6578ZM140.386 15.3018C140.995 15.3018 141.397 14.8999 141.397 14.3032C141.397 13.7065 140.995 13.3046 140.386 13.3046C139.777 13.3046 139.375 13.7065 139.375 14.3032C139.375 14.8999 139.777 15.3018 140.386 15.3018ZM147.583 15.1922V8.5673H149.227V7.03286H144.259V8.5673H145.903V15.1922H147.583ZM151.894 15.1922V12.3669H152.625L153.672 15.1922H155.621L154.22 12.0746C155.024 11.6605 155.463 10.8446 155.463 9.69986C155.463 8.00711 154.501 7.03286 152.832 7.03286H150.226V15.1922H151.894ZM152.649 10.8811H151.894V8.5673H152.649C153.38 8.5673 153.794 8.99353 153.794 9.72422C153.794 10.4549 153.38 10.8811 152.649 10.8811ZM159.019 15.3383C160.577 15.3383 161.613 14.3884 161.613 12.9514V7.03286H159.932V12.9149C159.932 13.4507 159.567 13.8039 159.019 13.8039C158.458 13.8039 158.093 13.4507 158.093 12.9149V7.03286H156.425V12.9514C156.425 14.3884 157.46 15.3383 159.019 15.3383ZM167.178 15.1922V13.6578H164.547V11.831H166.788V10.3209H164.547V8.5673H167.178V7.03286H162.879V15.1922H167.178ZM169.078 15.3018C169.687 15.3018 170.089 14.8999 170.089 14.3032C170.089 13.7065 169.687 13.3046 169.078 13.3046C168.469 13.3046 168.067 13.7065 168.067 14.3032C168.067 14.8999 168.469 15.3018 169.078 15.3018Z" fill="#7E8590"/>
<path d="M31.7713 9.85204L30.3119 3.25391C19.8719 5.45328 12.2383 12.3987 12.2383 12.3987L14.8202 7.65266C13.4731 7.88417 11.228 8.57871 7.52344 10.1993V18.5338C8.87054 17.7235 21.4435 10.6623 31.7713 9.85204Z" fill="#7E8590"/>
<path d="M18.5227 45.1596H61.2932C58.8235 32.4264 50.8531 27.7961 45.8015 26.1755L56.3538 16.915C58.2622 15.2944 58.8235 12.4005 57.5886 10.0854L53.3228 1.63513C52.7615 0.477564 51.5267 -0.101219 50.2918 0.0145373L44.5666 0.593321C42.097 0.824834 40.9744 3.83451 42.4337 5.80237L49.8428 15.1787C50.2918 15.7574 50.2918 16.6835 49.8428 17.2623L43.1073 23.1659L41.0866 20.0404C41.0866 20.0404 38.9537 20.6192 35.3614 22.0083L34.6879 18.8829L40.0763 17.378C40.0763 17.378 39.4027 12.0532 32.555 12.9793C3.59227 16.915 0 28.7222 0 28.7222L8.75617 26.2913V36.1306L11.5626 34.8573V37.4039C8.64391 39.9506 5.9497 42.7288 4.37808 45.2754H10.8891C24.0233 30.1113 38.8415 25.8283 38.8415 25.8283L39.7395 29.1852C25.7072 35.4361 18.5227 45.1596 18.5227 45.1596ZM45.6892 5.10783C45.2402 4.52905 45.577 3.83451 46.2505 3.60299C46.6995 3.48724 47.9344 3.25572 47.9344 3.25572L49.6183 10.2011L45.6892 5.10783ZM19.1962 23.5131L17.1756 25.8283C16.502 26.6386 15.3794 26.7543 14.5936 26.0598L13.5833 25.1337L19.1962 23.5131ZM25.3704 27.1016C23.5743 28.2592 18.6349 31.5004 13.9201 35.4361V31.1531L11.1136 32.4264V26.5228L11.7871 26.9858C14.3691 29.0695 18.0736 28.7222 20.2065 26.1755L24.2478 21.5453L28.7382 20.272C28.9627 21.4295 29.524 24.0919 25.3704 27.1016Z" fill="#7E8590"/>
</svg>
