<svg width="19" height="18" viewBox="0 0 19 18" fill="none" xmlns="http://www.w3.org/2000/svg">
<path d="M18.8571 9L16.7657 6.60857L17.0571 3.44571L13.9629 2.74286L12.3429 0L9.42857 1.25143L6.51429 0L4.89429 2.73429L1.8 3.42857L2.09143 6.6L0 9L2.09143 11.3914L1.8 14.5629L4.89429 15.2657L6.51429 18L9.42857 16.74L12.3429 17.9914L13.9629 15.2571L17.0571 14.5543L16.7657 11.3914L18.8571 9ZM7.18286 12.4371L5.14286 10.38C5.0634 10.3007 5.00036 10.2065 4.95734 10.1028C4.91433 9.99913 4.89219 9.88797 4.89219 9.77571C4.89219 9.66346 4.91433 9.5523 4.95734 9.44861C5.00036 9.34492 5.0634 9.25073 5.14286 9.17143L5.20286 9.11143C5.53714 8.77714 6.08571 8.77714 6.42 9.11143L7.8 10.5L12.2143 6.07714C12.5486 5.74286 13.0971 5.74286 13.4314 6.07714L13.4914 6.13714C13.8257 6.47143 13.8257 7.01143 13.4914 7.34571L8.41714 12.4371C8.06571 12.7714 7.52571 12.7714 7.18286 12.4371Z" fill="#2299E9"/>
</svg>
